<?xml version='1.0' encoding='utf-8'?>
<svg xmlns="http://www.w3.org/2000/svg" width="4583.3mm" height="3e3mm" version="1.1" viewBox="0 0 4583.3 3e3"> <g transform="matrix(1.416 0 0 1.416 14565 -7081.1)"> <path d="m-9284.7 5000.8h24.425c24.099 1.1036 44.11 2.6234 60.049 4.5231 263.92 35.653 546.25 67.685 803.02 115.39 72.099 15.415 146.4 22.163 178.21 90.68 0.3076 0.6332 0.2714 1.2665-0.091 1.8816l-4.4688 7.7979c-0.5971 1.0313-0.7237 2.2435-0.38 3.3833 26.451 84.908 52.957 169.85 79.517 254.87 1.3208 4.2336 4.107 8.9196 8.4854 9.0643 175.62 5.5544 350.51 19.866 524.68 42.916 56.521 7.4722 113.86 15.053 163.12 44.996 1.8093 1.1037 2.3701 2.8225 1.7007 5.1745-0.3437 1.2122-1.7369 1.7912-2.8405 1.176-30.178-16.555-59.633-24.57-94.334-30.287-181.05-29.798-364.58-43.73-547.88-48.723-67.756-1.8635-132.11-0.1267-192.59 34.249-1.5198 0.8504-3.4557 0.2352-4.1975-1.3388l-3.4737-7.3456c-0.3076-0.6694-0.8323-0.9951-1.5741-1.0132-231.11-1.2483-461.99 24.841-691.24 51.256-1.357 0.1448-2.0445-1.5921-0.9408-2.3882 26.795-19.54 57.082-30.359 90.897-32.458 0.7779-0.054 1.1398-0.4343 1.0855-1.1399-0.054-0.597-0.398-0.9408-0.9951-0.9951-75.5-8.1235-152.23 50.569-161.84 125.98-3.6728 28.894-4.2337 58.638-1.6826 89.232 0.5427 6.441 4.2336 10.982 5.6086 17.441 0.3076 1.4112 1.5922 2.3701 3.0215 2.2435 197.95-16.681 396.24-32.187 594.76-42.626 0.7599-0.036 1.2483-0.8142 0.9408-1.5198l-0.4885-1.0674c-0.2714-0.6152-0.7599-0.9227-1.4474-0.9227-28.423 0.3437-49.23 0.8684-62.383 1.574-177 9.6071-353.82 21.005-530.45 34.177-0.6151 0.036-1.1398-0.4704-1.1036-1.0856 2.4786-41.758 3.6727-83.171 10.078-125.51 0.6875-4.505 2.7862-8.9196 7.5446-9.0643 151.25-4.7945 302.6-10.24 453.31-24.479 43.748-4.1251 87.441-9.7157 131.08-14.908 15.614-1.8636 40.781-3.2205 75.5-4.107 8.4854-0.2171 13.931 5.9886 13.786 14.184-0.054 2.4244 1.9178 4.4327 4.3603 4.4327h37.072c1.5016 0 2.7138 1.2122 2.7138 2.7139v29.002c0 1.2122 1.5017 1.8092 2.3159 0.9046 1.2846-1.3931 1.8816-3.2205 1.8273-5.4459-3.5099-116.97 129.71-129.63 213.53-126.36 100.41 3.9261 200.68 10.204 300.81 18.834 98.188 8.4492 187.87 19.829 269.02 34.141 27.265 4.8126 54.133 15.071 80.566 30.793 3.9441 2.3521 7.6531 5.3735 11.127 9.0644 9.2995 9.8604 18.653 19.685 28.043 29.473 4.7945 4.9935 6.1876 9.2091 7.9607 15.65 0.1628 0.5428 0.5789 0.977 1.1217 1.158l15.505 5.0659c1.8997 0.6332 3.2566 2.3339 3.4014 4.3241l2.7862 35.588c0.1629 2.153-1.3026 4.107-3.4194 4.5412l-7.2371 1.4836c-0.7598 0.1628-1.3207 0.8322-1.3026 1.6283l2.0083 93.719c0.018 0.6513 0.5427 1.1579 1.1941 1.1398 52.848-0.5246 105.44 1.2122 157.78 5.1745 20.046 1.5379 33.562 1.954 47.24 10.168 21.584 12.918 28.134 37.144 28.188 60.954 0 5.3373 1.2122 18.147-1.1579 22.543-4.0347 7.3998-20.408 8.9015-27.682 8.4673-62.709-3.6366-126.45-8.1055-188.9 0.2894-1.8093 0.2352-2.8948 1.2484-4.107 2.4244-9.9328 9.5167-19.739 19.16-29.418 28.912-24.714 24.913-34.973 66.219-38.609 99.943-0.199 1.7188 1.1941 3.2024 2.931 3.1481 53.59-1.8635 100.27 1.1037 148.72 26.614 38.826 20.445 75.048 46.588 108.74 74.596 1.1398 0.9408 3.3471 1.7007 5.0659 1.7188 33.055 0.2352 66.056-0.8685 99.038-3.311 4.7222-0.3437 12.52 0.9951 23.394 4.0527 2.6958 0.7418 3.4195 2.3521 4.1975 4.7946v3.1662c-1.4836 2.8586-3.6004 4.306-6.3324 4.3603-216.64 4.4507-477.97 8.4673-783.98 12.068-3.6728 0.054-8.0873 0.5066-13.208 1.375-13.063 2.2435-22.797-2.7501-35.172-2.3882-99.002 2.8767-198.75 3.9984-299.23 3.3833-1.5378-0.018-2.8043 1.2484-2.8043 2.7862v154.18c0 0.8685 0.8322 1.4655 1.6464 1.2122 1.5017-0.4884 2.2797-1.6283 2.3158-3.4013 0.778-44.888 1.5922-89.829 2.4787-134.84 0.036-2.2073 1.8455-3.9803 4.0527-3.9984 13.407-0.054 26.976-0.036 40.672 0.018 5.6811 0.018 9.8966 2.0263 9.9147 8.1054 0.1267 30.486 1.5741 59.832 4.3422 88.002 1.2484 12.755 3.2748 22.037 6.0429 27.808 16.681 34.738 68.173 28.803 99.111 27.428 52.016-2.2797 104.01-4.686 156.01-7.2189 2.4425-0.1267 4.5412-0.4704 6.2962-1.0313 1.375-0.4342 2.0263-1.375 1.9359-2.8224-1.4293-25.221-10.041-127.81 8.3044-143.18 5.6449-4.7403 11.416 0.1628 10.838 6.6942-1.3389 15.18-1.3208 32.802 0.072 52.83 2.6234 38.229 2.334 100.79 5.9163 151.14 0.1266 1.8455-0.1809 5.8439 0.7961 8.3588 0.6875 1.7369 3.2385 1.375 3.4194-0.4885 1.3027-14.13 1.4474-28.315 0.4162-42.536-3.6004-49.772-3.4557-100.16-3.3652-150.06 0.036-25.221 30.341-29.961 49.827-26.379 26.017 4.7583 29.69 21.53 32.494 44.236 0.977 7.8883 1.3931 15.053 1.2303 21.494-0.6332 24.895-0.199 49.519 1.3027 73.854 0.1085 1.7912 1.6464 3.1662 3.4375 3.0938 36.113-1.5378 71.773-3.0938 106.96-4.6316 4.0889-0.181 6.1514-1.3208 8.7568-4.1794 1.4112-1.556 3.8356-1.6102 5.3192-0.1267 1.8997 1.8998 4.2336 2.7682 7.038 2.6415 46.86-2.2796 93.719-4.704 140.56-7.255 1.0494-0.054 2.1349-0.1086 3.2748-0.1267 0.5427-0.018 1.0493-0.2352 1.4293-0.6151 3.2023-3.1843 5.7896-9.2091 9.1186-10.892 5.1202-2.5873 10.258 1.1217 11.724 6.6942 1.0313 3.9803 2.6054 4.3784 6.3505 4.1613 27.519-1.6103 54.856-3.2386 82.032-4.8488 2.3158-0.1448 4.0346-2.153 3.8356-4.4508-2.7862-29.907-3.9804-59.886-3.5642-89.956 0.1447-10.856 0.6332-29.78 13.859-32.603 3.7633-0.7961 5.4459 2.4787 5.5725 5.862 1.8274 55.056 3.6547 110.13 5.4459 165.18 0.018 0.8141 0.4523 1.2303 1.2665 1.2664l1.176 0.072c0.7056 0.036 1.2845-0.5428 1.2665-1.2484-0.8866-35.805-2.1169-71.646-3.6909-107.54-0.8504-19.305 0.4342-37.94 1.375-57.064 0.091-2.1168 1.5017-4.7402 3.0938-5.5725 15.324-7.9788 48.578-14.04 59.506 4.4508 1.7912 3.0214 2.8948 7.7617 3.329 14.221 0.8323 12.194 1.8636 24.407 3.0758 36.637 0.054 0.5247 0.3437 1.0132 0.8141 1.2846l9.0825 5.5001c1.773 1.0856 1.6826 3.6909-0.1629 4.6498l-6.9475 3.6185c-1.8092 0.9408-2.931 2.8405-2.8586 4.8669l1.2484 37.361c0.072 2.0807 1.7911 3.709 3.8718 3.6547 63.921-1.5378 127.77-4.3964 191.55-8.5577 0.5428-0.036 0.9951-0.2714 1.357-0.6875 1.8816-2.2254 4.3965-3.3472 7.5446-3.3291 0.5789 0.018 0.9227 0.3076 1.0312 0.8685 6.6581 32.657-35.226 29.075-53.753 27.682-1.7369-0.1266-3.2205 1.2846-3.1662 3.0215l0.8865 31.39c0.036 1.4474-1.5378 2.352-2.7681 1.5921l-10.204-6.3323c-1.176-0.7237-2.7139-0.2352-3.2567 1.0312-4.4688 10.367-8.9015 20.879-13.316 31.553-1.1398 2.7319-1.7911 6.2057 0.2171 8.2683 12.755 13.153 28.025 21.982 45.792 26.524 1.5017 0.3799 2.931-0.7961 2.8586-2.352-0.3437-6.8209-0.7056-13.551-1.0674-20.191-0.054-0.778 0.072-1.375 0.3618-1.7731 0.579-0.7779 1.4112-0.8322 2.4968-0.1628 0.5066 0.3076 0.8503 0.8142 0.977 1.3931l5.3192 22.778c0.3618 1.556-0.5066 3.13-2.0264 3.6547l-16.356 5.6268c-1.8635 0.6332-2.9853 1.9178-3.3652 3.8537l-2.2797 11.199c-0.3076 1.5017 0.7237 2.9672 2.2435 3.2024l20.282 3.1662c2.0445 0.3076 3.5642 2.0445 3.6004 4.0889 0.2895 11.272 0.398 22.978 0.3257 35.081 0 1.3569-0.6875 1.8274-2.0807 1.3931-0.4342-0.1266-0.7418-0.5247-0.7779-0.977l-2.3883-32.422c-0.1447-1.8816-1.5921-3.4194-3.4556-3.6366-7.3275-0.8684-14.474-1.6464-21.422-2.3339-1.8997-0.1809-3.2204 0.1809-3.9622 1.0675-11.217 13.569-21.928 44.308 1.3388 52.776 1.5741 0.579 3.2929-0.4342 3.5462-2.0987l1.6645-10.964c0.2171-1.4474 1.6102-2.4244 3.0395-2.1168 5.1564 1.0856 15.306 8.3769 20.173 11.29 1.8635 1.1217 2.551 2.7319 2.0625 4.8126-2.1892 9.4985-7.8341 15.162-16.916 17.007-1.5379 0.3076-2.4787 1.8455-2.0806 3.3652 1.7911 6.64 3.528 13.135 5.2106 19.522 0.8323 3.0938 3.2386 4.5412 7.2008 4.3783 0.579-0.036 1.0675-0.2532 1.4836-0.6513l0.778-0.7961c2.0083-2.0082 5.4639-0.5246 5.3554 2.334l-1.4293 39.604c-0.072 1.9721-1.1579 3.7451-2.8948 4.7041-8.3045 4.5593-16.5 9.788-20.137 19.287-0.054 0.1628-0.072 0.3437-0.036 0.5066l1.7369 7.5626c0.1266 0.5066-0.054 1.0494-0.4523 1.3932-1.755 1.4655-2.0626 3.0757-0.9589 4.7945 0.3256 0.4885 0.7599 0.8503 1.2845 1.0855 12.52 5.5182 6.5857 13.262 5.1202 22.362-1.5016 9.2814-3.13 18.599-4.8669 27.935-0.1085 0.5971-0.4523 1.0313-1.0131 1.2665-9.4986 3.9984-17.496 9.969-24.027 17.894-4.4146 5.3735-4.4508 11.489 3.9623 12.176 0.597 0.054 1.1398 0.2713 1.5921 0.6694 3.0938 2.75 3.3652 5.7353 1.954 9.8061-2.6415 7.5808-4.6136 16.193-5.9163 25.836-0.9408 6.9838-4.3783 11.326-10.638 15.415-9.589 6.2781-18.219 13.913-25.89 22.905-1.0132 1.1941-1.1037 2.931-0.1991 4.2155l4.0709 5.8801c0.7056 1.0132 0.7056 2.352 0.018 3.3652-14.04 20.463-30.07 39.206-48.108 56.268-0.398 0.38-0.6332 0.9047-0.6332 1.4655v2.0988c0 0.597-0.1628 1.1398-0.4885 1.6283l-5.084 7.7255c-0.3799 0.5609-0.8503 0.977-1.4474 1.2846-2.4968 1.2664-4.9392 2.1892-7.0923 3.727-16.41 11.652-33.055 22.959-49.953 33.905-19.07 12.339-36.891 17.079-59.362 18.147-10.892 0.5066-21.621 2.2073-32.187 5.084-5.1202 1.3931-10.132-0.054-14.438 0.199-56.919 3.13-114.45-0.2533-171.16 1.9359-2.0625 0.072-4.0346-0.8142-5.3192-2.4244l-3.6004-4.4507c-0.398-0.4885-0.9046-0.6695-1.5197-0.5247-18.708 4.704-41.197 1.3207-61.37-0.181-1.2665-0.09-2.3521-0.9408-2.7682-2.1349l-3.4919-9.788c-0.6694-1.8635-3.0214-2.4425-4.4507-1.0675l-10.204 9.7338c-0.3618 0.3438-0.8684 0.4885-1.375 0.3799l-45.792-9.7337c-2.4606-0.5247-4.107-2.8406-3.7813-5.3373 1.0313-7.8884 7.3094-27.718-9.0644-23.538-25.438 6.4952-50.713-24.371-62.094-44.146-0.2895-0.5066-0.2171-0.9589 0.199-1.357 2.8225-2.6053 12.375-8.0511 7.8341-12.303-1.0313-0.9589-2.5872-1.0313-3.709-0.199-8.8653 6.658-17.369 4.3784-25.764-2.3701-10.096-8.1236-18.726-17.622-25.89-28.496-3.4919-5.3011-5.5544-6.7124-1.4655-12.068 4.1794-5.4821 8.1778-10.765 12.013-15.813 2.7863-3.6728-0.778-8.7749-5.1744-7.3998l-22.127 6.8932c-1.9359 0.5971-4.0165-0.036-5.3011-1.5921-8.6663-10.439-17.097-20.824-25.293-31.119-4.306-5.4096-4.487-9.3176 0.2714-14.257 6.9656-7.237 13.949-14.257 20.951-21.078 1.3569-1.3208 1.4655-2.7501 0.2895-4.2518l-6.8028-8.8291c-0.9408-1.1941-2.6234-1.4836-3.908-0.6695l-13.551 8.7025c-0.9589 0.6333-2.2073 0.5609-3.1119-0.1447-11.453-8.9739-35.28-35.823-24.154-51.238 1.4655-2.0445 4.9031-4.7041 10.313-7.9426 4.9031-2.9491 9.7881-6.4409 14.673-10.458 1.5197-1.2484 0.995-3.6728-0.8866-4.2155-7.1103-2.0083-10.114-6.8209-9.0462-14.402 0.09-0.7237-0.4343-1.375-1.158-1.4474-4.107-0.398-6.7666 1.3389-7.9426 5.1926-0.5789 1.9359-3.2566 2.0806-4.0346 0.2171-3.3109-7.9245-7.9426-26.089-19.902-22.742-51.383 14.384-101.1 22.073-149.17 23.068-1.6102 0.036-2.8586 0.181-3.7451 0.4343-1.7007 0.4885-2.7682 1.1941-3.2205 2.153-29.31 61.876-92.543 113.17-164.57 97.32-3.1843-0.7056-6.4952-0.8141-6.0791 3.5642 1.6464 17.93-2.2977 22.598-20.046 23.086-4.107 0.1085-6.6038 2.0444-5.3916 6.3686 0.1629 0.5608 0.4704 1.0312 0.9227 1.375l6.3686 4.8307c1.7731 1.3388 1.954 3.9442 0.38 5.5182l-7.3094 7.2913c-2.3701 2.3701-2.0988 4.3784 0.7961 6.0429 3.6004 2.0806 9.9147 4.4507 10.548 9.1729 4.2698 31.933-19.667 43.856-41.179 59.524-0.4885 0.3437-0.8503 0.6513-1.0855 0.8865-0.9589 0.9227-0.8323 2.4968 0.2714 3.2386l16.356 11.127c1.8635 1.2664 2.6234 3.6366 1.8635 5.7534l-15.523 43.132c-0.2171 0.5971-0.6151 1.0494-1.1941 1.3208-8.413 3.9984-16.826 7.9969-25.275 11.959-16.754 7.8522-4.5231 16.772 2.4425 24.371 0.5066 0.5427 0.6513 1.3569 0.3618 2.0444l-15.18 36.511c-0.2171 0.4885-0.5609 0.9227-1.0132 1.2484l-26.867 18.708c-0.5427 0.398-0.977 0.9227-1.2302 1.5197l-14.908 34.882c-0.2352 0.5247-0.6875 0.9046-1.2484 1.0313-3.6908 0.8141-5.8258 3.1481-6.4047 6.9837-0.091 0.6694-0.4161 1.2303-0.9408 1.6645-51.781 43.314-101.99 74.252-169.83 82.249-49.917 5.88-102.11 7.2732-152.36 7.0199-0.7418 0-1.9902 0.4523-3.7271 1.3388h-3.6185c-5.1926-2.3701-5.6811-5.9162-9.6795-8.3044-0.5247-0.3076-1.0675-0.3981-1.6464-0.2352-15.089 4.1974-30.432 6.5314-46.046 6.9837-10.204 0.3075-19.214 1.5921-19.811-10.801-0.018-0.6151-0.2533-1.1941-0.6332-1.6645-5.5906-6.9837-12.99 6.8209-16.88 10.258-0.4162 0.3799-0.9589 0.5789-1.5379 0.597-17.242 0.4523-33.797-2.6234-49.628-9.2633-1.0312-0.4343-1.7549-1.3751-1.8816-2.4787l-1.375-11.29c-0.2352-1.8274-2.1169-2.931-3.8175-2.2254-15.505 6.4409-34.846 3.9984-43.621-11.416-9.3538-16.41-31.427-20.68-33.363-44.453-0.054-0.6332 0.2171-1.2484 0.7418-1.6283 3.8175-2.7682 5.6449-6.5314 5.4458-11.272-0.018-0.6513-0.3618-1.0493-0.9951-1.176-10.693-2.2616-15.523 19.377-27.609 8.8111-13.949-12.212-27.935-24.588-41.938-37.09-0.5066-0.4523-0.5789-0.9589-0.2171-1.5379l22.417-35.516c1.3932-2.2072-0.796-4.903-3.2385-4.0165l-28.478 10.458c-1.8093 0.6513-3.8176-0.181-4.6317-1.9359l-9.2634-20.155c-0.6694-1.4474-2.7862-1.176-3.0938 0.38-0.6333 3.2023-2.6596 4.1793-6.0791 2.9671-20.282-7.2008-30.721-21.693-31.318-43.458-0.018-0.6332 0.181-1.176 0.5971-1.6645l21.802-24.895c2.0987-2.3882-0.6333-5.9344-3.4738-4.505l-19.449 9.7337c-0.7418 0.38-1.6465 0.3076-2.334-0.1628-13.986-9.7157-25.402-21.675-34.285-35.896-8.6844-13.931 11.29-34.412 22-41.848 2.6596-1.8636 3.0576-4.0166 1.176-6.4591-3.0214-3.908-5.9705-7.7074-8.8472-11.38-0.5066-0.6513-1.5017-0.6875-2.0626-0.072l-8.7206 9.4804c-1.2302 1.3389-3.1481 1.7912-4.8307 1.1399-8.413-3.2567-5.8438-11.272-9.987-14.094-13.732-9.3719-20.788-22.38-21.186-39.026-0.072-2.8948 0.8685-4.3783 3.2929-5.6629 7.4722-3.9623 18.672-10.078 33.616-18.382 2.0987-1.1579 3.4014-3.2567 2.7862-5.5001-0.3618-1.357-1.8635-2.0626-3.13-1.4293-6.9294 3.4375-13.678 3.1481-20.209-0.8866-1.4474-0.8684-2.3159-2.4425-2.334-4.1432 0-4.3964-0.018-9.1005-0.036-14.094-0.018-2.1892-1.2484-3.3833-3.3653-3.2929-21.078 0.8504-25.275-23.574-27.663-37.307-0.2171-1.1941 0.4885-2.3521 1.6464-2.732 13.642-4.3784 27.446-8.9558 41.414-13.732 2.0625-0.7056 2.9129-2.3521 2.5691-4.9393-1.2122-8.7749-1.375-18.255-0.4885-28.441 0.054-0.7056-0.1628-1.3027-0.6513-1.7912l-0.9408-0.9408c-1.0494-1.0494-2.8405-0.4161-3.0034 1.0675-0.6151 5.6267-1.4836 26.126-5.1021 29.744-14.456 14.546-25.402-42.011-26.379-47.837-0.5608-3.3653-1.375-4.5955-4.3964-5.862-6.839-2.8767-13.479-5.5906-19.938-8.1778-1.0675-0.4343-2.2797-0.1991-3.0938 0.597-13.027 12.556-26.904 28.224-38.989 38.139-63.613 52.197-158.33 48.452-207.65-21.711-1.8997-2.6958-2.352-4.8126-6.5314-4.5231-42.861 3.0395-85.74 5.7353-128.66 8.0692-0.5789 0.036-1.1398-0.1809-1.5559-0.5789-2.5149-2.4425-5.9887-3.329-7.6713 0.3799-0.3075 0.6695-0.796 0.8685-1.4835 0.579l-5.3011-2.2978c-0.5609-0.2533-1.158-0.3799-1.7912-0.3618-31.21 0.3799-62.437 0.8322-93.647 1.3931-8.3406 0.1628-19.124-7.6712-22.616 5.9886-2.1711 8.4312-5.1021 16.392-6.2419 21.765-3.0396 14.257-3.2205 28.496-0.5247 42.698 0.5609 2.9491 0.5428 5.7353-0.036 8.3949-4.1975 19.341-8.3587 38.664-12.484 58.005-0.9408 4.4508-0.072 9.969-1.2303 13.768-14.076 45.991-32.802 89.974-56.177 131.93-16.283 29.22-69.692 37.488-101.14 38.483-34.756 1.1037-74.071 1.6103-117.91 1.556-5.9886-0.018-9.7518-1.954-13.352-6.3324-1.1217-1.375-3.1662-1.556-4.5042-0.3799-2.968 2.5872-5.899 4.2517-10.132 4.4326-12.032 0.4704-24.081 0.778-36.149 0.9046-13.153 0.1448-10.367-9.788-7.87-18.346 0.307-1.0131-0.941-1.773-1.719-1.0493l-9.191 8.6844c-1.013 0.9589-2.443 1.3026-3.782 0.9227l-29.979-8.5397c-0.597-0.1628-1.049-0.6875-1.122-1.3207-0.977-8.3769-5.409-13.841-13.279-16.392-0.67-0.2172-1.249-0.5971-1.719-1.1399-5.681-6.6399-8.196-14.347-7.545-23.158 0.344-4.6317 2.841-8.9377-2.117-12.267-2.949-1.9721-6.983-0.9046-10.258-0.1629-1.357 0.3076-2.696-0.6332-2.877-2.0082-2.207-17.17-9.896-31.246-23.068-42.228-0.832-0.6875-0.434-2.0444 0.652-2.1891l9.498-1.2122c0.832-0.1086 1.429-0.8866 1.321-1.7188l-1.628-12.846c-0.218-1.7731-1.918-2.9491-3.655-2.5511l-6.875 1.6284c-1.665 0.3799-3.366-0.4704-4.053-2.0264l-11.29-25.221c-0.742-1.6826-0.723-3.3471 0.06-5.0116l14.202-29.889c0.235-0.4704 0.326-1.0132 0.235-1.5379-1.176-7.4722-10.566-4.4327-12.303 0.9046-0.542 1.6826-2.949 1.5741-3.365-0.1447l-8.467-35.28c-0.398-1.6464-0.05-3.3833 0.941-4.7584l11.072-15.252c0.941-1.3027 0.06-3.13-1.556-3.1843l-10.964-0.3257c-0.778-0.018-1.411-0.3437-1.899-0.9408-13.298-16.319-12.937-31.716 1.067-46.208 6.224-6.4409-5.012-26.94-9.697-33.688-3.927-5.6629-5.718-13.479-5.374-23.484 0.02-0.5609 0.362-1.0856 0.868-1.3389 3.076-1.5378 7.636-1.0493 10.024-1.8454 14.311-4.7041 7.508-13.407 9.516-23.611 1.303-6.6218 6.821-24.226 4.234-29.78-0.253-0.5428-0.344-1.1037-0.289-1.7007 5.771-55.58 17.676-104.43 45.575-152.95 13.678-23.81 27.428-43.386 48.886-57.426 38.482-25.149 84.365-11.579 114.31 20.083 9.4262 9.9509 13.569 15.451 26.162 20.01 1.5559 0.5609 3.2566-0.4161 3.528-2.0625l3.0938-18.545c0.3981-2.3701 3.6185-2.7862 4.5955-0.597 2.931 6.6037 0.7418 16.989-1.0493 23.683-0.1448 0.5428-0.5066 1.0132-1.0132 1.2846-5.1564 2.8586-4.1432 8.9196 0.7599 11.181 1.0674 0.4885 2.2977-0.1447 2.5148-1.2845 2.5149-12.755 3.6185-26.958 17.152-33.272 0.8504-0.398 1.8274 0.2533 1.7912 1.1941l-0.9589 22.706c-0.054 1.1218 1.3027 1.7188 2.0987 0.9408 8.9015-8.7386 7.0199-16.898 4.2699-27.808-0.181-0.6875 0.1266-1.4112 0.7237-1.773 6.459-3.9623 13.479-5.1021 21.042-3.3833 1.4293 0.3256 2.75-0.9227 2.4605-2.3701-1.7911-9.3177-3.7994-18.744-6.0429-28.279-0.5427-2.334-1.7368-4.3242-3.9622-4.9031-17.568-4.5774-31.427 0.4704-41.613 15.18-2.0264 2.9491-4.487 3.1662-7.3818 0.6513-0.398-0.3437-0.6513-0.8141-0.7237-1.3388-3.13-22.019 9.8786-37.144 30.558-41.902 1.0856-0.2533 1.4293-1.6283 0.579-2.352-7.816-6.7847-24.027-25.728-34.955-15.487-4.7221 4.4146-6.4228 15.342-8.4492 22.218-0.7961 2.7139-4.1432 3.6547-6.2419 1.7731l-6.8932-6.2058c-0.6695-0.597-1.7007-0.5246-2.2978 0.1448-3.1119 3.4918-6.0972 6.8209-8.9739 9.9871-1.3207 1.4474-2.6777 1.375-4.0708-0.2172-0.5609-0.6332-0.6875-1.5559-0.3257-2.3158l20.463-44.182c0.8141-1.755 2.7138-2.7501 4.6136-2.4244 4.3422 0.7599 8.5577 1.5559 12.665 2.3701 1.9721 0.398 2.8586-0.398 2.6777-2.4063-0.072-0.8503-0.6332-1.5921-1.4293-1.9178l-35.498-13.913c-1.2484-0.4885-2.6596 0.1086-3.1843 1.3389-4.1432 9.6433-8.1959 18.925-12.176 27.844-4.1974 9.4262-15.685 7.6531-14.582-2.2978 1.538-13.931 6.314-26.524 14.347-37.759 0.6333-0.8865 0.1448-2.1349-0.9408-2.352l-22.524-4.306c-0.67-0.1266-1.357 0.054-1.864 0.5066-7.526 6.5495-9.191 19.594-7.418 28.731 0.29 1.4655 1.285 3.51 2.985 6.1153 2.352 3.6004 3.167 7.7255 2.443 12.375-0.253 1.6283-2.226 2.3158-3.438 1.176-3.347-3.13-5.446-6.9656-6.296-11.489-0.488-2.6234-4.125-2.9129-5.03-0.4161l-8.847 24.226c-0.724 1.9721-3.6 1.7369-3.98-0.3257-0.308-1.6102-0.416-3.4918-0.344-5.6449 0.561-16.012 1.122-33.399 1.683-52.124 0.07-2.3701-0.887-2.9129-2.877-1.6283l-17.297 11.109c-1.338 0.8503-2.026 2.4063-1.791 3.9803 2.262 14.474 0.959 28.568-3.908 42.3-0.181 0.5247-0.488 0.9589-0.922 1.3027-3.203 2.5872-5.736 2.4244-7.599-0.5247-5.699-8.992-7.418-18.545-5.12-28.658 0.506-2.2073-1.611-4.1251-3.764-3.4195-19.702 6.4047-13.985 34.81-11.778 51.148 0.959 7.1104-6.821 10.06-10.584 4.4327-3.474-5.1926-6.857-10.132-10.15-14.782-1.737-2.4787-3.6-2.5691-5.591-0.3076-17.368 19.739 4.433 36.873-9.408 57.426-0.778 1.1398-2.406 1.2665-3.347 0.2714l-12.339-12.99c-1.013-1.0674-2.786-0.6513-3.238 0.7418l-9.788 30.667c-0.435 1.3569 0 2.8405 1.085 3.7451l7.02 5.7896c1.701 1.4293 2.026 3.9261 0.706 5.7172l-11.127 15.107c-0.724 0.9951-1.882 1.5559-3.112 1.5379l-96.234-2.4063c-3.438-0.091-6.206-2.8768-6.278-6.3143-0.652-34.322-1.032-69.095-1.122-104.36-0.02-10.801 1.194-19.16 5.609-28.025 0.687-1.3931 2.098-2.2977 3.654-2.3701 23.321-0.8865 47.023-1.7912 71.086-2.6958 3.998-0.1628 5.608-1.3569 7.526-4.5955 0.941-1.574-0.126-3.5823-1.972-3.6909-27.048-1.5559-54.024-0.8865-80.946 2.0083-0.615 0.072-1.158 0.3076-1.628 0.7237-3.383 2.9853-6.296 3.0034-8.775 0.054v-5.9163c0.597-4.0708 2.262-6.1152 4.957-6.1695 15.56-0.2714 30.812-0.6152 45.774-1.0494 2.732-0.072 4.903-2.3158 4.903-5.0478v-130.09c0-1.6826 1.828-2.7319 3.293-1.8997 10.53 6.0248 21.621 7.3637 33.254 4.0527 8.251-2.352 13.877-7.5988 10.856-16.627-0.434-1.3569-1.719-2.2796-3.148-2.2796h-27.646c-3.98 0-7.2-3.2567-7.164-7.237 0.416-38.971 0.832-77.78 1.284-116.43 0.04-2.5329 1.864-6.3143 4.162-6.6942 20.173-3.329 39.333-9.6252 57.516-18.889 5.12-2.6234 3.853-6.1876 3.98-10.91 0.489-18.092 0.977-36.167 1.447-54.241 0.181-6.5675-0.94-10.512 2.95-15.831 5.663-7.7436 8.214-14.51 8.793-24.714 5.681-97.844 16.283-195.16 31.788-291.94 0.127-0.8323 0.597-1.1218 1.393-0.8504l3.42 1.1579c0.723 0.2353 1.013 0.7418 0.886 1.5017-2.062 12.104-4.179 24.172-6.35 36.203-0.471 2.6415 0.76 4.1612 3.673 4.5412 1.121 0.1447 2.153-0.6333 2.297-1.755 6.785-50.569 16.483-100.81 29.111-150.75 0.633-2.5149-0.633-3.2748-3.817-2.3159-0.561 0.1809-1.05 0.5609-1.339 1.0856-11.905 21.403-13.968 44.707-17.007 70.923-0.09 0.7961-0.543 1.1399-1.321 1.0313l-3.257-0.4342c-0.778-0.1086-1.302-0.8142-1.194-1.5922 3.094-21.005 6.188-41.721 9.3-62.184 1.809-11.887 51.437-36.8 64.264-42.445 224.94-98.948 453.09-181.83 684.44-248.63 2.6054-0.7599 7.1285-2.4606 8.9378-4.4689 22.67-24.895 49.573-28.858 81.869-25.438 178.65 18.979 356.86 41.396 534.65 67.286 119.32 17.369 238.41 36.004 357.6 54.26 31.608 4.8488 62.89 10.512 93.846 17.007 1.2122 0.2533 1.9359-1.2845 0.977-2.0625-37.144-30.178-94.57-36.764-140.2-44.363-243.15-40.455-487.03-75.898-731.63-106.35-55.653-6.9294-109.71-14.076-164.71-10.765-23.484 1.4112-34.303 13.859-32.476 37.325 0.2714 3.3833-0.1448 4.6317-3.6004 5.5725-194.48 53.246-382.01 117.51-562.62 192.76-51.944 21.657-106.11 47.583-162.52 77.816-1.881 1.0132-4.957 1.2303-6.26-0.4342-0.814-1.0313-0.615-2.533 0.471-3.2929 17.35-12.176 34.303-23.665 53.21-33.905 49.826-27.012 99.002-51.473 147.53-73.42 109.44-49.483 222.57-95.546 339.43-138.21 0.4523-0.1628 0.6875-0.5066 0.7056-0.9951 0.018-0.1809 0.018-0.3618 0.018-0.5428 0-0.2713-0.2533-0.4523-0.5066-0.3618-27.971 9.6433-55.978 19.196-84.004 28.677-112.41 38.03-222.79 81.254-331.11 129.65-24.642 11.018-46.136 22.38-67.937 35.769-1.954 1.1941-3.166 0.6694-3.619-1.5559l-1.501-7.3275c-0.109-0.5609 0.162-1.1398 0.687-1.4112 93.9-48.379 199.14-92.778 295.88-129.87 107.05-41.016 215.3-78.54 324.78-112.57 36.529-11.344 73.908-17.749 112.14-19.214zm-28.514 105.91c0.7056 2.1168 1.3389 4.4146 1.8997 6.8571 26.904 120.19 52.957 240.58 78.124 361.16 1.8093 8.6482 7.3998 11.905 16.301 11.851 123.92-0.9589 242.8 9.9508 368.64 21.367 1.1398 0.1086 1.7911-1.2846 0.9589-2.0806l-30.685-29.364c-0.9227-0.8865-2.1711-1.4112-3.4557-1.4293-88.201-1.6464-180.58-5.2468-264.93-15.65-38.483-4.7403-65.513-23.086-81.127-55.019-3.7452-7.6531-7.418-19.106-11.018-34.358-18.002-76.314-30.721-154.55-41.341-232.18-7.5084-54.875 44.29-56.123 82.23-50.17 76.73 12.068 153.7 22.236 230.91 30.522 4.0708 0.4523 8.0331 0.1267 11.923-0.9408 1.6646-0.4704 2.2978-1.4474 1.9179-2.9129-0.1629-0.597-0.6695-1.0493-1.2665-1.1398-94.75-13.388-189.39-26.126-283.93-38.193-30.992-3.9623-61.659-19.486-88.78 6.2057-2.5691 2.4425-5.4458 2.8406-4.6316 7.4722 24.95 141.34 48.542 271.82 70.778 391.43 6.0972 32.784 9.8604 63.65 11.29 97.446 1.3027 30.468 3.3471 60.881 6.1153 91.241 2.6777 29.201 7.3275 54.422 21.385 80.132 20.246 36.963 56.232 41.36 94.895 37.198 12.502-1.3569 36.511-4.903 54.567-7.9607 3.6366-0.6151 6.0248-0.3799 8.3407-3.8537 1.1941-1.7911 0.3618-4.2517-1.6826-4.9392-0.778-0.2714-1.8817-0.2895-3.2748-0.091-18.708 2.732-41.794 5.3554-56.702 6.2962-18.002 1.1217-41.432 0.9589-57.136-7.0018-18.852-9.5529-31.173-31.065-38.067-50.55-25.782-72.967-20.282-151.43-32.386-226.72-20.571-128.1-41.142-256.15-61.714-384.16-0.072-0.4885 0.2352-0.9589 0.7056-1.0856 0.4885-0.1266 0.977 0.1448 1.1398 0.6152zm1153 380.32c4.0708 0.5608 3.7813-5.3192 3.0938-7.617-21.222-72.424-41.902-140.31-62.057-203.61-14.148-44.399-49.736-69.33-94.551-76.007-138.1-20.589-325.81-47.348-563.13-80.258-0.6151-0.091-1.1398-0.3619-1.556-0.8142-6.8751-7.5265-14.601-9.0643-24.588-5.8077-57.697 18.889-116.08 35.262-175.19 49.121-1.0675 0.2352-1.9721 0.6332-2.7139 1.176-1.9721 1.4293-0.8684 4.5593 1.574 4.4327 10.421-0.5609 20.933-2.1349 31.553-4.7222 46.823-11.434 93.683-22.724 140.56-33.851 6.9294-1.6464 18.979-9.7337 25.583-6.9656 0.4704 0.199 0.8503 0.5609 1.1036 1.0132 2.2073 4.1794 5.084 6.5133 8.6482 7.0018 183.77 24.841 367.51 49.791 551.24 74.885 37.832 5.1745 70.127 20.517 86.482 55.218 2.0445 4.3603 5.9163 15.777 11.615 34.249 19.63 63.74 39.623 127.26 59.94 190.55 0.3438 1.0675 1.2665 1.8454 2.3883 2.0083zm-1491.9 157.88c-35.624-4.8488-28.894-80.602-27.591-104.19 4.4869-80.548 6.4047-161.28 10.548-241.86 2.1711-42.409 18.201-68.426 60.013-82.321 56.539-18.798 119.5-38.646 188.89-59.542 39.767-11.959 51.98 7.2008 58.276 42.698 18.255 102.82 34.014 194.64 47.276 275.46 8.6663 52.884-4.8669 115.39-65.133 130.34-14.329 3.5642-37.09 9.5166-49.935 4.0165-34.195-14.691-26.922-132.8-26.958-163.23 0-2.3158-1.6645-4.306-3.9623-4.7221l-16.319-2.8586c-1.9359-0.3438-2.135-3.0577-0.2714-3.6728 19.612-6.5133 26.397 10.439 27.501 25.872 0.1085 1.574 1.1579 2.9491 2.6596 3.4557 20.354 6.9113 31.897-5.5183 31.825-24.461-0.1266-31.499-1.773-64.735-4.9573-99.744-1.2303-13.533-8.6663-18.726-21.802-20.155-33.598-3.6366-67.268-5.7173-101.03-6.2058-19.015-0.2714-27.591 1.8997-25.999 23.665 2.334 31.716 4.7041 63.45 7.1466 95.167 0.3618 4.8307 2.3882 10.059 7.6531 9.987 24.913-0.3799 46.534 1.3751 64.88 5.2288 13.823 2.9129 16.428 5.2649 16.482 19.305 0.1085 25.818 0.3799 51.636 0.8141 77.454 0.8685 51.509 16.718 102.24 77.364 106.37 18.418 1.2483 36.854 2.6053 55.291 4.0708 7.9968 0.6332 11.127 1.4474 10.729 10.258-0.3437 7.2913-0.199 22.833 0.4342 46.624 0.018 0.579 0.2714 0.9951 0.7961 1.2484 4.9031 2.4425 7.3637 0.072 7.2008-5.0478-0.796-25.565-1.5559-51.31-2.2615-77.237-0.036-1.2484-1.0494-2.2435-2.2978-2.2435-15.071-0.018-30.377 0.1809-45.919 0.6332-11.796 0.3257-25.565 0.7056-36.728-3.7089-1.3027-0.5066-0.9589-2.4425 0.4523-2.4787 74.451-1.3569 109.71-72.623 106.24-138.3-0.6875-12.918-1.6826-23.629-2.9853-32.114-13.624-88.31-28.912-176.31-45.864-264.02-4.5051-23.303-14.474-50.333-42.011-51.582-5.5544-0.2533-14.112 1.3389-25.71 4.7946-83.388 24.805-150.53 45.864-201.41 63.161-46.588 15.849-60.718 65.278-62.274 109.24-3.1843 89.576-6.7847 179.13-10.819 268.67-0.8684 19.287 0.4162 47.891 12.719 63.034 11.054 13.606 25.167 14.257 42.644 11.181 57.118-10.059 114.42-19.033 171.9-26.904 0.5609-0.072 1.0675-0.398 1.3932-0.8684 5.6448-8.3949-5.0298-13.099-11.851-12.013-47.602 7.5807-95.13 15.541-142.59 23.864-11.398 1.9902-25.655 4.885-34.448 3.6909zm552.8-474.15c-0.2166-0.9562-1.1755-1.5533-2.1217-1.3362l-89.379 20.306c-0.9514 0.2106-1.5485 1.1695-1.3361 2.1219l0.2405 1.0585c0.2165 0.9562 1.1754 1.5533 2.1217 1.3362l89.379-20.306c0.9515-0.2106 1.5485-1.1695 1.3361-2.1219zm652.05 293.32c33.507 2.75 72.298 7.5445 116.35 14.402 6.8208 1.0494 13.587 1.5017 20.282 1.3389 19.16-0.4524 38.41-0.977 57.733-1.5741 2.0987-0.072 3.4738-2.2254 2.6415-4.1432-3.6004-8.3768-7.2732-16.989-11.036-25.836-0.9408-2.1892-0.3981-5.283 0.9408-7.2913 7.0922-10.656 8.0873-19.902 4.7221-32.91-10.856-41.956-22.181-81.724-37.325-124.06-10.096-28.242-28.767-31.029-55.508-26.325-65.622 11.579-130.39 26.777-194.3 45.593-29.4 8.6482-35.878 16.247-34.376 48.18 1.4655 31.101 3.7633 62.274 6.9295 93.52 0.199 1.8454-1.2846 3.4195-3.1301 3.3652-9.191-0.2895-8.8834-6.441-9.6975-14.601-2.1711-21.657-3.2748-43.35-3.2929-65.115-0.018-3.0758 0.3438-4.3242-1.375-7.5084-0.8142-1.5198-3.13-1.0494-3.2567 0.6875-1.8816 26.144-0.8684 52.45 3.0396 78.938 1.8997 12.791 14.203 9.7881 23.593 10.656 21.964 2.0626 43.929 4.1794 65.875 6.3505 2.5872 0.2533 11.091 1.4293 25.547 3.5461 7.237 1.0494 15.777 1.9721 25.637 2.7863zm-424.72-74.324 0.6694 47.782c0.018 1.158 0.9046 2.0988 2.0445 2.1892l175.17 14.601c2.2073 0.1809 3.2747-0.8323 3.2205-3.0395-0.7418-25.999-2.2797-51.473-4.6136-76.423-2.0626-21.982-10.801-29.129-32.53-23.882-47.312 11.434-94.461 23.267-141.48 35.516-1.4836 0.398-2.4968 1.7368-2.4787 3.2566zm-879.08-2.8043c-49.972-5.3192-100.41-10.421-150.64-15.379-12.52-1.2303-13.171 5.7173-13.189 15.958-0.072 82.773-0.054 165.58 0.072 248.46 0 1.8273 1.6464 3.2023 3.4375 2.8948l16.844-2.9129c1.8273-0.3076 3.1662-1.8998 3.1662-3.7452-0.036-32.946-0.036-65.875 0.018-98.821 0.018-23.593 6.8571-25.818 29.183-21.928 1.2845 0.2171 2.4967-0.7057 2.6053-2.0083 4.8669-56.738 59.506-56.792 102.37-55.381 2.9128 0.1086 5.3734-2.1349 5.5724-5.0478l3.7814-58.258c0.1266-1.9359-1.3027-3.6185-3.2205-3.8356zm16.862-5.9706c-4.1793 31.716-7.0379 63.541-8.612 95.51-0.199 4.0889-0.9227 9.39-0.2895 14.203 0.036 0.2713 0.2714 0.4885 0.5609 0.4885 0.2714-0.018 0.5066-0.2352 0.5428-0.5066 4.2155-37.361 7.3636-74.831 9.4804-112.39 0.054-0.8866-0.2713-1.0494-0.977-0.5066-0.5246 0.4342-0.7779 0.977-0.7598 1.6102 0.054 0.9589 0.072 1.5017 0.054 1.5921zm804.28 51.419c-2.2253-0.9408-3.2566-3.1119-2.9128-5.3192 0.1085-0.7056 0.8141-1.1399 1.5016-0.9227l37.506 12.013c1.5741 0.5066 3.1662-0.7418 3.0757-2.3882l-2.1892-37.85c-0.1085-1.8454-1.9178-3.1119-3.6727-2.5691l-77.092 23.43c-0.7418 0.2171-0.7599 1.2665-0.018 1.5198l2.4244 0.7779c0.5789 0.1991 0.9408 0.778 0.8684 1.3751l-0.6151 5.7353c-0.091 0.9046 0.3075 1.3027 1.2122 1.176 12.013-1.5559 22.616-0.09 31.807 4.4146 54.748 26.867 109.5 53.717 164.26 80.566 3.7089 1.8273 8.7025 1.2664 8.1959-3.8356-0.4343-4.3242-3.2929-7.8703-8.5759-10.602-0.4704-0.2352-0.5247-0.8865-0.091-1.1941 7.1466-5.0297 14.456 8.8292 15.958 13.841 0.5609 1.8816 2.2254 3.2205 4.1794 3.3471 49.23 3.3471 100.63-3.3109 148.27-6.8751 8.3768-0.6333 8.3949-1.4112 0.054-2.3702-52.396-5.9886-105.33-11.054-158.8-15.216-23.556-1.8273-38.012-7.9607-65.404-18.581-33.525-12.99-66.834-26.487-99.943-40.473zm-132.35-19.982c0.199-1.3314-0.7237-2.5617-2.0539-2.7453l-98.276-14.162c-1.3315-0.1827-2.5617 0.7219-2.7454 2.0539l-0.051 0.3581c-0.1991 1.3314 0.7237 2.5617 2.0538 2.7453l98.277 14.162c1.3314 0.1828 2.5617-0.7219 2.7453-2.0538zm-585.62 221.04c2.1711 1.7007 4.3965 2.1711 6.6943 1.4293 7.3093-2.3882 5.5182-8.3587 4.1793-15.306-8.2682-42.807-31.01-161.48 50.098-153.39 1.8093 0.1809 3.3471-1.3027 3.2205-3.1119l-3.4919-53.88c-0.1266-2.0626-1.7549-3.6909-3.7994-3.8537l-61.551-4.686c-1.1941-0.091-2.2435 0.8142-2.2978 2.0083-3.4376 67.431-5.5363 135.02-6.2781 202.76-0.1266 11.634 4.2698 20.987 13.226 28.025zm-426.93 35.733c0.453 14.564 5.555 30.522 24.099 26.668 82.267-17.079 161.06-31.463 236.42-43.133 19.232-2.9852 32.205-6.6218 42.934-21.277 21.982-30.052 27.265-75.97 26.831-112.48 0-0.8866-1.0313-1.3932-1.7369-0.8323-0.2894 0.2352-0.5608 0.6332-0.796 1.1941-0.1629 0.38-0.2533 0.8504-0.2352 1.375 0.3437 33.96-6.2962 84.365-38.935 102.93-5.3011 3.0214-13.841 5.8619-25.601 8.5215-80.403 18.165-152.45 32.512-216.15 43.06-20.282 3.3471-33.037-14.492-32.549-33.037 1.99-75.645 9.408-150.91 22.254-225.79 0.145-0.8504-0.217-1.2665-1.067-1.2665h-0.489c-0.561 0-0.941 0.2714-1.104 0.8142-25.239 82.484-36.528 166.9-33.869 253.26zm244.29-171.3 13.153-27.32c0.072-0.1448 0.018-0.3257-0.1266-0.38l-0.1447-0.072c-2.1892-1.0494-6.9114 4.1974-10.53 11.742l-0.2714 0.5428c-3.6366 7.5446-4.7945 14.51-2.6053 15.56l0.1447 0.072c0.1448 0.072 0.3257 0 0.38-0.1447zm203.74 9.5709c1.0675 0.7056 2.0264 0.9046 2.8767 0.5971 0.6513-0.2352 1.176-0.9408 1.5741-2.1169 5.2106-15.234 14.365-26.542 32.277-25.004 1.0675 0.091 1.5741-1.2665 0.7056-1.8997-18.69-13.75-36.094 9.8242-38.428 26.198-0.1266 0.8685 0.2714 1.7369 0.9951 2.2254zm416.62 110.51c2.0082 0.7056 3.4918 0.1267 4.4869-1.7369 15.505-29.328 37.361-52.432 65.531-69.349 1.2303-0.7418 1.3931-2.4425 0.3257-3.3833-5.9163-5.2287-11.742-10.62-17.514-16.175-4.2879-4.1432-1.7188-11.471 3.2386-12.212 16.898-2.6054 35.733-1.7188 54.73-0.8866 86.88 3.8537 174.54 8.0331 262.96 12.538 1.2664 0.054 2.153-1.2122 1.6826-2.3701-1.357-3.3833-5.4097-4.704-9.2091-4.9392-97.501-6.061-206.73-12.285-327.69-18.635-17.188-0.8866-33.652-0.8142-49.374 0.2171-11.127 0.7418-9.9328 7.2913-9.0644 15.831 3.4557 33.598 9.5709 66.743 18.382 99.473 0.199 0.7599 0.778 1.375 1.5198 1.6283zm1104.3 461.21c-0.1448-1.0493 0.8865-1.8635 1.8816-1.5017 73.6 27.157 76.568-41.577 69.602-89.504-5.4096-37.216-10.783-74.451-16.084-111.7-1.755-12.267-0.4704-24.696 3.8356-37.632 24.732-74.125 18.581-139.6-17.351-208.64-7.219-13.877-15.433-33.996-8.6844-49.519 9.2814-21.367 35.733-24.208 47.059-3.13 1.9178 3.5823 3.3109 9.7519 4.1794 18.527 14.601 149.23 31.065 298.26 49.392 447.07 3.311 27.03 7.2913 44.49 28.912 58.62 13.841 9.0462 26.252 6.9837 35.371-6.9475 1.1218-1.7007-0.6332-3.8357-2.5148-3.0758l-14.601 5.8439c-0.3799 0.1628-0.778 0.1628-1.1579 0l-30.178-12.285c-0.5428-0.2171-0.9951-0.6332-1.2665-1.176-2.6234-5.2468-4.2336-10.801-4.8307-16.663-8.793-85.668-17.26-172.02-21.566-258.04-3.2385-64.717-7.9969-129.31-14.239-193.81-1.4836-15.234-3.9261-35.335 10.53-45.358 23.394-16.229 42.427 12.99 44.562 32.91 1.954 18.038 5.5725 55.725 10.856 113.06 9.4624 102.73 20.372 205.1 38.23 306.76 0.3981 2.2615 2.2978 3.8718 4.5412 2.9852 0.9409-0.3618 1.5379-1.2845 1.5017-2.2977-4.6859-139.53-19.25-277.79-34.122-416.33-2.4063-22.38 13.352-51.184 38.881-29.672 8.7748 7.3998 13.732 16.88 14.872 28.441 11.018 111.76 22.453 223.46 34.34 335.15 3.2566 30.594 7.4903 59.181 12.755 88.545 0.3438 1.9721 1.3751 3.0577 3.0938 3.2205 3.9442 0.38 3.9261-3.0576 3.8176-5.9343-1.0856-32.331-2.1892-55.978-3.311-70.905-8.811-117.66-19.377-235.13-31.716-352.44-1.6646-15.921 7.3817-27.881 23.755-26.144 18.002 1.9178 29.02 21.114 30.486 37.868 11.706 132.47 24.823 264.8 39.315 397 0.6513 5.9525 3.5461 25.094 14.076 21.548 1.7731-0.597 2.5692-1.9902 2.3701-4.2156-8.413-100.12-20.879-239.58-37.433-418.39-0.7779-8.2321 0.7599-15.921 4.5955-23.032 0.2895-0.5246 0.7056-0.9227 1.2484-1.176 36.095-17.55 46.733 18.653 49.085 45.123 9.39 105.5 20.716 214.47 33.978 326.93 4.5955 38.917 11.905 77.201 21.946 114.82 0.1085 0.4343 0.5428 0.7056 0.977 0.6514 0.4523-0.072 0.778-0.4523 0.7599-0.9047-5.8258-154.73-23.466-298.58-41.74-462.84-1.3569-12.122 4.6136-20.987 16.953-22.598 25.149-3.2566 33.2 20.933 35.118 40.672 12.321 127.08 25.872 254.04 40.654 380.85 1.7911 15.469 4.9935 30.612 9.5709 45.43 0.6694 2.1349 2.9491 3.3109 5.0659 2.6415 4.2879-1.375 2.931-4.9393 3.0034-8.1597 0.5608-25.818-0.38-50.858-2.8225-75.084-11.543-114.25-24.769-233.86-39.659-358.79-1.7549-14.818 9.3539-26.56 24.57-21.783 22.742 7.1284 23.285 23.936 27.121 44.616 0.199 1.1036 1.5016 1.6283 2.4244 0.977 22.091-15.704 53.626-26.741 79.788-17.514 78.286 27.664 86.066 142.01 73.401 209.58-4.4146 23.647-12.086 41.305-30.45 55.146-32.965 24.877-69.946 0.4885-96.234-21.313-0.9227-0.7598-2.3158-0.036-2.2073 1.158 4.2337 45.141 9.4262 90.354 15.578 135.68 1.8816 13.768 10.711 28.622 17.568 40.6 7.5627 13.262 20.553 20.137 34.412 12.158 1.6102-0.9227 1.7188-3.2204 0.1809-4.2879l-16.265-11.29c-2.1349-1.4655-1.8092-4.7041 0.5609-5.7354l22.417-9.6433c1.3931-0.597 2.1349-2.1168 1.7731-3.5823-0.38-1.4655-1.7731-2.4425-3.2748-2.2977-8.2863 0.796-16.862 1.5921-25.746 2.3882-2.8948 0.2533-4.7403-1.5198-3.6004-4.3603 0.398-0.9589 1.2664-1.6645 2.2977-1.8274l21.693-3.528c1.8998-0.3076 3.0758-2.2254 2.4787-4.0346-2.8224-8.8835-12.61-12.828-21.06-13.551-16.79-1.4474-18.527 17.495-20.734 29.147-0.1628 0.9046-0.977 1.556-1.8816 1.5379-0.9227-0.018-1.7007-0.6875-1.8454-1.5922-2.2797-14.275 0-27.139 6.857-38.573 8.9015-14.836 24.932-22.091 39.351-8.8111 27.736 25.583 38.754 101.54-19.431 98.369-0.7961-0.054-1.2484 0.3257-1.3751 1.1037l-0.2352 1.5921c-0.1628 1.1218 0.5971 2.1711 1.7007 2.3701 9.191 1.7188 33.127 3.6005 40.636-3.5642 9.6252-9.1367 12.9-18.038 14.076-32.132 4.2517-51.401 12.375-102.19 24.352-152.36 7.7617-32.458 19.359-69.041 20.861-100.5 3.0215-63.378-18.726-163.32-82.104-196.52-7.5446-3.9442-18.183-7.4903-31.933-10.638-34.9-7.9788-73.908-14.601-117.04-19.866-171.57-20.933-336.7-33.887-495.39-38.863-21.259-0.6694-42.481-0.036-63.65 1.9178-72.985 6.6942-105.48 48.09-102.78 120.6 0.995 26.596 2.4967 52.902 4.5231 78.902 0.1809 2.2254-1.5922 4.1251-3.8175 4.107l-69.982-0.3619c-0.9408 0-1.4112 0.4704-1.4293 1.3932l-0.09 4.5412c-0.018 0.977 0.778 1.7911 1.755 1.7911l69.638 0.1086c1.7731 0 3.3109 1.2846 3.6185 3.0395l1.8635 10.439c0.1086 0.6332 0.5609 1.1579 1.158 1.3389l19.92 6.4771c1.954 0.6332 3.8356-1.1579 3.2929-3.1481-7.9969-29.038-9.8424-58.62-5.5183-88.744 9.4986-66.4 66.454-125.42 137.74-92.073 82.448 38.573 110.09 144.7 93.014 227.13-19.522 94.28-120.59 109.41-180.31 42.445-0.7237-0.7961-2.0445-0.3076-2.0445 0.7598-0.09 17.55 6.6038 31.97 20.083 43.277 3.51 2.9672 0.9046 11 0.7237 15.252-0.018 0.6152 0.1809 1.1399 0.6333 1.556 34.593 32.639 56.304 75.156 71.719 118.99 5.7172 16.301 15.958 46.353 30.739 90.173 0.1447 0.4342 0.5608 0.7418 1.0312 0.7237h0.5609c0.7418 0.018 1.0494-0.3257 0.9589-1.0675zm-2004.3-549.74c-0.47 1.8636-1.212 2.5692-2.768 3.6728-0.561 0.3799-0.887 0.8865-0.977 1.556l-8.341 57.462c-0.235 1.5921 1.176 2.931 2.75 2.6415l2.497-0.4523c0.615-0.1267 1.068-0.6152 1.14-1.2122l7.689-63.197c0.06-0.4342-0.271-0.8141-0.705-0.8141h-0.869c-0.235 0-0.362 0.1085-0.416 0.3437zm986.87 69.946c-30.07 1.8635-52.993-11.181-65.242 27.935-0.6876 2.1892 0.1085 3.2386 2.4063 3.1662l124.53-3.9441c2.0626-0.072 3.9804-1.0313 5.265-2.6415l29.69-37.506c1.1579-1.4655-0.2352-3.5462-2.0264-3.0396-30.848 8.6844-62.383 14.022-94.624 16.03zm677.8 31.59c3.2928-19.468 44.544-13.244 57.697-12.212 0.7056 0.054 1.3208-0.4704 1.3932-1.176l1.375-13.226c0.1266-1.3026-0.8866-2.4425-2.1892-2.4425h-58.511c-0.9951 0-1.8093 0.8142-1.8093 1.8274 0.018 8.811 0 17.839-0.018 27.103-0.018 2.9671-1.6826 7.3817-0.4342 10.439 2.5511 6.3504 15.162-1.0675 18.635-3.0939 3.1119-1.8273 7.0199 0.3981 7.0561 3.9985l0.6694 63.794c0 0.6694-0.2714 1.3027-0.7599 1.7731-11.181 10.367-17.242 20.625-11.217 36.728 0.9408 2.5329 1.2665 3.9441 4.4326 3.9984 11.38 0.1628 22.652-0.018 33.797-0.5247 1.176-0.054 2.1168-1.0312 2.1168-2.2253v-28.785c0-0.7237-0.4342-1.3932-1.1037-1.6826l-9.1367-4.0347c-1.4836-0.6694-2.4244-2.1168-2.4244-3.727v-64.536c0-0.6333 0.2352-1.1761 0.7056-1.6103 10.548-9.9328 14.293 4.1794 22.019 6.0972 8.7025 2.153 12.918-3.9803 13.226-12.14 0.4161-11.235 0.3799-22.634-0.1267-34.195-0.036-0.6875-0.8142-1.0856-1.375-0.6875-5.8982 4.1251 4.2698 32.946-7.6532 42.192-1.4835 1.1579-3.6366 0.6694-4.4688-1.0132l-4.2337-8.5035c-0.6151-1.1941-1.8454-1.9178-3.1842-1.8816l-52.486 2.0083c-1.2303 0.054-2.1892-1.0494-1.9902-2.2616zm224.91 199.02c19.847 10.892 45.629 17.242 67.63 10.656 47.764-14.311 61.696-75.373 56.376-118.72-6.7305-54.621-37.651-106.02-96.686-112.16-78.702-8.1778-83.099 85.053-68.191 137.36 2.1349 7.4541 6.1333 16.319 11.181 21.168 14.764 14.239 22.851 31.535 24.262 51.889 0.3076 4.6316 1.5379 7.6712 5.4278 9.8061zm-1899.4-209.15c0.07-1.0491-0.707-1.9537-1.759-2.0308l-1.877-0.1346c-1.051-0.078-1.956 0.7183-2.031 1.759l-8.845 123.4c-0.07 1.049 0.706 1.9536 1.759 2.0307l1.877 0.1346c1.051 0.078 1.955-0.7183 2.03-1.7589zm817.55 11.525c0-2.3339-1.8817-4.2155-4.2156-4.2155h-4.6679c-2.3339 0-4.2155 1.8816-4.2155 4.2155v76.531c0 2.3339 1.8816 4.2155 4.2155 4.2155h4.6679c2.3339 0 4.2156-1.8816 4.2156-4.2155zm1733 201.75c7.5084 17.007 20.191 29.038 38.519 30.938 26.958 2.8043 48.633-17.369 59.325-39.912 18.87-39.767 9.4624-103.76-18.653-137.47-24.244-29.057-79.282-50.985-98.333-1.5922-13.37 34.683-13.117 69.421 0.7599 104.21 5.8801 14.745 12.013 29.364 18.382 43.82zm-1998-57.19 47.312 27.808c1.0494 0.6152 1.6464 1.7912 1.5198 3.0034l-6.839 64.735c-0.054 0.5247 0.1448 1.0675 0.5609 1.4112 0.977 0.8685 2.1349 0.5066 3.4737-1.1036 13.081-15.777 26.126-31.517 39.134-47.24 0.597-0.7237 1.6283-0.9046 2.4244-0.4523l51.744 29.654c1.5741 0.9046 3.4376-0.6333 2.8587-2.3521l-22.254-66.128c-0.2352-0.7418-0.1086-1.5379 0.3618-2.1349l42.825-55.725c0.977-1.2665-0.1085-3.0938-1.6826-2.8224l-58.33 9.788c-0.8503 0.1448-1.7007-0.2894-2.0987-1.0493l-27.682-53.373c-0.5428-1.0494-2.0083-1.1399-2.6777-0.1629-0.3619 0.5428-0.6333 1.2846-0.7961 2.2435-4.1794 22.706-8.2321 45.268-12.176 67.72-0.199 1.1398-0.9951 2.0987-2.0987 2.4967l-55.273 20.336c-1.4655 0.5428-1.6646 2.5511-0.3076 3.3472zm-551.93 258.2c12.357-29.744 34.322-53.029 67.322-61.207 51.654-12.773 154.62-16.229 177.04 49.537 33.109 97.157 60.302 202.47 83.515 305.37 2.3882 10.602 17.477 8.1416 14.872-3.0758-21.403-92.688-45.448-184.67-72.135-275.98-11.471-39.225-29.599-80.023-73.003-88.925-12.249-2.5149-24.552-4.6317-36.927-6.3867-1.1941-0.1628-1.5378-0.7418-1.0312-1.7007 0.1266-0.2714 0.398-0.4523 0.6875-0.4704 70.669-7.1827 99.997 41.378 116.99 100.59 24.371 84.926 40.582 145.97 57.408 220.2 2.2616 9.9871 6.3867 19.07 10.421 28.279 0.5971 1.3751 2.4606 1.6283 3.4014 0.4523 15.107-18.798 34.484-30.956 58.113-36.456 1.2664-0.2895 1.4655-2.0083 0.3075-2.5872-12.502-6.2057-19.666-16.301-21.512-30.287-0.2352-1.8092 1.1218-3.4557 2.9491-3.5461 20.065-1.1037 37.868 4.6136 53.409 17.188 4.0166 3.2566 19.287 0.018 24.045-0.2352 0.597-0.018 1.1941 0.1628 1.6464 0.5427 35.298 28.948 74.36 49.682 115.27 69.982 18.201 9.0282 27.718 13.696 28.532 14.004 7.5265 2.8043 39.406 9.7519 39.586-4.2336 0.054-4.6498-3.2566-8.2502-6.8208-10.892-41.414-30.522-83.298-60.393-125.65-89.576-23.737-16.356-51.726-6.8028-77.291-16.772-37.307-14.546-53.427-59.126-62.311-95.13-14.926-60.32-29.925-120.62-44.996-180.89-13.117-52.504-18.056-90.444-85.976-83.388-76.911 7.9788-155.94 14.926-229.32 32.006-12.14 2.8224-26.813 4.9754-38.863 0.9408-3.021-1.0313-3.944-3.4557-2.135-6.1515 0.308-0.4704 0.778-0.796 1.321-0.9046 10.801-2.3339 21.639-4.5231 32.512-6.5676 8.051-1.5197 6.821-3.1481 10.657-8.9015 0.362-0.5247 0.741-0.5428 1.121-0.036 3.89 5.0478 9.644 6.9837 17.297 5.8439 55.888-8.3768 122.49-16.591 199.8-24.642 18.69-1.954 30.703-2.4968 36.022-1.6464 44.236 7.1284 57.154 62.763 64.88 98.586 11.561 53.608 24.823 106.78 39.785 159.52 14.926 52.559 29.292 108.32 96.795 109.98 11.272 0.2714 27.971 0.1448 50.098-0.398 71.574-1.7731 143.15-3.4195 214.74-4.9574 10.222-0.2171 17.496-0.7599 21.82-1.6102 49.537-9.7338 73.673-68.173 75.03-113.24 0.036-0.8322-0.9408-1.3026-1.5741-0.7598-0.2352 0.199-0.5247 0.5246-0.8322 0.977-0.2352 0.3256-0.38 0.7056-0.4523 1.1398-6.2782 37.687-17.694 73.636-50.098 96.994-19.884 14.311-43.874 14.42-67.811 13.823-72.678-1.7911-145.61-0.4523-218.32 0.3076-17.369 0.1809-29.382-0.4885-36.022-2.0083-34.412-7.8159-51.184-36.366-60.718-68.534-13.045-43.965-24.298-84.981-33.761-123.07-7.7979-31.427-10.711-60.574-9.1186-92.109 1.4293-28.423 3.9261-57.462 7.4541-87.134 0.1628-1.4112-0.9227-2.6596-2.3339-2.6957-3.8718-0.1267-5.9163 8.033-6.1515 11.163-1.4655 19.287-2.9129 38.573-4.3422 57.878-0.2171 3.0576-1.5198 4.7945-4.8126 3.8175-0.9046-0.2714-1.6102-0.977-1.8635-1.8816-8.7206-30.739-27.917-65.187-62.474-70.543-6.5676-1.0132-17.767-0.4704-33.58 1.6102-89.992 11.869-179.97 23.593-269.94 35.154-0.488 0.072-0.904-0.3076-0.922-0.7961l-1.538-73.763c-0.02-0.4704 0.181-0.8142 0.597-1.0494 7.345-4.107 12.719-6.4771 16.12-7.1103 105.91-20.046 212.24-37.578 318.99-52.613 11.236-1.5922 18.997-1.7731 23.321-0.5428 17.188 4.885 21.82 27.754 23.846 43.277 0.2352 1.7188 2.0987 2.6777 3.6185 1.8635 2.8767-1.5379 4.2698-2.7862 4.2337-6.3324-0.1267-19.468-5.0298-44.978-26.686-50.207-5.0478-1.2122-14.257-0.8142-27.627 1.2122-102.44 15.542-208.3 32.82-317.56 51.853-9.896 1.7188-21.494 7.1647-21.946 18.762-0.47 11.851-0.941 37.216-1.429 76.097-0.02 0.6332-0.272 1.1579-0.76 1.5379-8.413 6.6037-17.839 11.073-28.297 13.443-5.898 1.3389-4.125 4.8307-4.324 9.2634-2.678 57.986-4.74 105.03 2.37 153.53 0.235 1.6283 1.212 3.0395 2.642 3.8537 12.049 6.8208 17.441 17.061 16.192 30.703-0.741 8.1235-4.052 13.805-12.755 13.913-2.044 0.036-3.401 2.153-2.569 4.0166 2.913 6.6218 10.91 0.9589 13.497-2.7682 3.998-5.7353 6.061-12.104 6.206-19.106 0.344-15.795 0.832-31.59 1.447-47.384 0.109-2.8405 1.484-4.2156 4.125-4.1251 1.592 0.072 2.949 1.1941 3.293 2.7682l1.864 8.5939c0.181 0.8504 0.85 1.5198 1.7 1.7007l18.039 3.908c0.687 0.1447 1.393-0.2171 1.664-0.8685zm843.97-301.23c0-1.8522-1.5066-3.3358-3.3589-3.3354l-0.2895 9e-4c-1.8566 0-3.3402 1.5185-3.3353 3.3589l0.931 266.72c0.01 1.8521 1.5066 3.3357 3.3589 3.3354l0.2895-9e-4c1.8566 0 3.3402-1.5185 3.3353-3.3589zm711.63 64.023c28.134-1.4836 48.85 6.9837 59.162 33.905 0.9228 2.4063-0.7056 5.0298-3.2747 5.265l-89.866 8.0873c-0.4342 0.036-0.6152 0.5609-0.3076 0.8685l0.4523 0.4523c0.3076 0.3256 0.7056 0.4885 1.1579 0.4885 114.11 0.054 228.15 2.4786 342.15 7.2732 4.6136 0.199 8.9377 0.1809 12.99-0.054 2.334-0.1267 4.2337-1.9178 4.487-4.2518 5.7172-53.753-19.685-79.734-72.786-81.941-218.45-9.0824-436.05 9.2815-653.32 29.708-19.486 1.8273-31.463 3.2023-35.932 4.107-38.646 7.834-63.758 31.897-75.355 72.225-42.716 148.61-84.637 312.26-110.24 463.31-0.3981 2.334 0.4885 3.3652 2.6596 3.0758 0.8322-0.1086 1.5016-0.7237 1.6826-1.556 28.749-135.02 63.668-268.66 104.76-400.89 10.783-34.683 19.359-64.029 61.967-68.788 46.136-5.1564 92.272-10.313 138.43-15.451 9.571-1.0675 19.395-1.357 29.038-1.8455 0.6514-0.036 0.9589-0.8322 0.4885-1.2845l-0.6875-0.6875c-0.4342-0.4343-0.9589-0.6333-1.574-0.6152l-193.75 10.277c-1.0855 0.054-1.8635-1.0494-1.4293-2.0445 7.4541-17.532 19.992-22.688 38.971-24.823 144.6-16.301 289.86-26.958 440.14-34.81zm-1226.7 0.5789c1.9179 10.946 34.575 12.846 35.823-3.4556 0.1448-1.8636 1.6103-3.3652 3.4557-3.5462 28.043-2.931 56.141-5.8439 84.275-8.7568 3.3833-0.3437 7.2732-1.1941 9.2996 2.0264 6.2057 9.8604 7.0923 26.705-3.0938 34.81-15.361 12.194-32.784-1.5379-44.634-10.856-1.4112-1.1217-3.4918-0.018-3.3652 1.7731 0.3981 6.2057 5.283 27.844 12.068 30.576 47.692 19.196 64.12-73.872 22.38-68.969-20.517 2.4064-41.052 4.7041-61.605 6.8933-5.1926 0.5609-10.53 0.5066-15.976-0.1266-16.79-1.954-43.404-7.4361-38.628 19.63zm2444 81.308c59.778 2.2977 119.46 4.4688 179.08 6.5314 3.0034 0.1086 7.0199-1.1941 7.0199-4.4327 0.018-12.013-2.0987-24.696-6.3685-38.067-4.8127-15.107-13.986-25.185-29.201-28.442-24.389-5.2468-50.731-7.5988-79.01-7.056-0.6151 0.018-1.0855 0.2713-1.4112 0.796l-2.6234 4.2156c-0.2352 0.398-0.6333 0.6694-1.0856 0.778-1.4655 0.3799-3.2747 0.5246-5.4277 0.4161-14.764-0.7599-29.545-1.5198-44.345-2.2797-11.217-0.5789-15.686 4.8307-16.229 15.668-0.8503 16.736-1.5378 33.435-2.0625 50.098-0.036 0.9408 0.7237 1.7369 1.6645 1.7731zm-1900.7 145.12c7.7436 35.244 44.236 63.939 76.966 31.571 0.2895-0.2895 0.3076-0.7237 0.072-1.0494-0.2532-0.3075-0.6875-0.398-1.0312-0.1809-19.341 12.068-45.738 17.025-57.986-7.5988-1.4113-2.8044-1.4655-4.9212 1.2303-6.7305 17.26-11.525 35.461-20.046 54.585-25.565 0.597-0.1809 1.176-0.1809 1.773 0.018l18.472 5.8258c1.3388 0.4342 2.7862-0.2714 3.2747-1.5921 8.8654-24.027-0.3075-54.223-16.681-71.99-16.555-17.984-39.785-18.147-57.588-1.3569-22.29 21.042-29.979 47.258-23.086 78.648zm-73.706-31.415c0-1.2422-1.0337-2.2554-2.2773-2.2456l-2.6776 0.019c-1.2532 0.01-2.2483 1.021-2.2458 2.2773l0.5379 77.036c0 1.2423 1.0336 2.2554 2.2773 2.2457l2.6775-0.019c1.2533-0.01 2.2484-1.0209 2.2458-2.2773zm225.12 448.25c0.6513 0.7237 0.9951 1.6826 0.9589 2.6777-1.3027 33.055-3.4557 66.02-6.4771 98.912-0.9951 10.819-2.3702 30.558 2.6777 39.225 0.4885 0.8323 1.773 0.5247 1.8092-0.4342 6.3505-137.68 66.888-340.37 222.3-379.13 12.05-3.0034 14.04 6.9113 22.272 5.1745 12.285-2.6054 24.552-5.2469 36.818-7.9246 11.543-2.4967-0.6513-12.393 1.4474-19.359 3.9623-13.081 66.436 9.571 77.581 14.619 0.5247 0.2352 0.8504 0.6513 0.977 1.2122 1.4655 6.9294 5.0478 12.448 10.711 16.555 0.9227 0.6694 2.2073-0.054 2.1168-1.1942l-1.2122-14.546c-0.036-0.5066 0.4704-0.9047 0.9408-0.7056 18.491 7.3998 34.919 17.984 49.266 31.77 0.9589 0.9408 2.5511-0.018 2.1711-1.3207-0.6513-2.2978-1.8816-4.3242-3.6908-6.0972-23.756-23.466-50.279-43.223-79.553-59.271-0.6694-0.3619-0.6333-0.6513 0.09-0.8865 0.5247-0.1629 1.2484-0.054 2.2073 0.3075 110.55 42.644 179.59 142.86 219.37 249.73 0.3437 0.9408 1.755 0.7418 1.8092-0.2714 0.2171-3.6365-0.3799-7.237-1.8092-10.819-38.7-97.645-99.78-185.43-194.91-235.04-14.384-7.4903-23.9-12.393-38.03-12.864-0.995-0.036-1.3931-1.3027-0.597-1.8997 4.9573-3.7814 10.276-4.8488 15.976-3.2024 77.237 22.471 136.2 67.557 176.87 135.24 8.6663 14.42 16.953 32.078 24.805 48.325 0.3256 0.6695 0.8503 0.977 1.574 0.959 0.2171 0 0.4342 0 0.6694 0.018 0.5428 0.018 0.9047-0.5427 0.6695-1.0312l-26.849-53.717c-0.5971-1.176-0.1086-2.6053 1.0674-3.2024 16.844-8.2864 31.463-19.504 43.82-33.67 3.4738-3.9622 5.862-3.4013 10.729-3.3833 12.104 0.054 24.045 0.018 35.823-0.1266 0.9047-0.018 1.1941-1.2303 0.3981-1.6464-16.066-8.413-22.145-21.005-29.201-36.692-0.7056-1.5741-2.2434-2.6416-3.9803-2.7682-14.8-1.0675-29.798-2.0083-44.978-2.8405-2.9672-0.1629-4.5955 0.2171-6.2419 2.9491-7.3999 12.249-16.464 23.14-27.157 32.657-5.5363 4.9393-1.9178 9.8967 4.5955 9.9147 9.0463 0.018 16.808-2.8586 23.267-8.612 1.574-1.4112 3.9442-1.4655 5.5725-0.1266 1.8816 1.5378 2.5691 3.3109 2.0625 5.3553-3.13 12.538-10.548 21.06-22.272 25.565-1.4654 0.5608-3.1481 0.1085-4.107-1.1399-14.022-17.785-28.08-35.715-42.192-53.825-7.8702-10.078 6.9656-22 13.262-29.201 1.556-1.7731 4.487-0.6333 4.4146 1.7369-0.2714 8.4854-2.7501 16.157-7.4541 23.014-1.7007 2.4787 1.0131 5.5906 3.6908 4.2337 2.732-1.375 5.3554-3.7632 7.8522-7.1827 13.352-18.31 25.691-34.068 51.401-34.086 1.4293 0 3.6728-0.2171 6.7304-0.6514 0.6876-0.09 0.9228-0.9589 0.3981-1.4112-1.8274-1.5378-4.7583-3.329-5.9344-4.3603-21.91-19.504-60.755-58.421-80.711-8.9377-0.2171 0.5247-0.5789 0.977-1.0493 1.3027-6.6219 4.3241-7.219-6.9837-8.7749-10.258-0.6333-1.3207-2.5692-1.0132-2.7863 0.4162-1.954 13.008-9.3176 20.806-22.109 23.394-0.7237 0.1447-1.3208-0.5428-1.0856-1.2484l16.265-47.638c0.1809-0.5428 0.9227-0.5971 1.176-0.091l4.2699 8.3769c0.5427 1.0674 2.0806 1.0674 2.6234 0 1.8454-3.6728 1.6102-5.862 0.597-10.295-3.1662-13.949 12.068-13.008 20.752-12.267 1.2484 0.1086 2.4063-0.7237 2.6958-1.9359 0.2895-1.2303-0.3437-2.4787-1.5017-2.9672-8.214-3.4195-16.301-7.5807-24.28-12.52-14.166-8.7387-23.176-12.556-38.211-13.461-0.6332-0.036-1.1037 0.5428-0.9589 1.1579 3.3471 13.045-1.2846 20.969-13.931 23.756-2.1531 0.4704-3.5824 1.2664-4.2518 2.3882-7.0018 11.489-16.392 20.39-28.206 26.686-4.5774 2.4425-6.4771-1.2122-5.4459-5.3192 5.0117-20.246 13.352-39.369 25.004-57.371 0.597-0.9408 1.7007-1.4293 2.8043-1.2665 2.5873 0.3799 4.686-0.4523 6.26-2.5149 0.9951-1.3026 0.091-3.1661-1.5378-3.2023-8.8473-0.1267-16.374-3.2929-22.58-9.4986-1.1579-1.1579-2.8043-1.7369-4.4507-1.5379l-35.678 4.306c-1.954 0.2353-3.4557 1.8274-3.5823 3.7814-1.375 21.204-14.257 48.723-37.054 54.784-1.3569 0.3619-2.6596-0.796-2.4425-2.1892l9.8062-62.799c0.3437-2.1711-1.5741-4.0165-3.7452-3.6004l-41.884 8.1597c-1.3027 0.2533-2.3159 1.2665-2.5692 2.5511-3.2024 16.229-6.6038 37.705-14.872 52.088-2.9672 5.1564-11.869 7.4722-15.523 2.4244-1.0675-1.4655-1.7369-4.1251-2.0264-8.015-1.0312-13.805-1.9902-27.591-2.8767-41.323-0.072-1.1398-1.2846-1.8635-2.3158-1.375-11.453 5.283-22.996 10.783-34.593 16.482-4.5774 2.2434-5.6992 4.704-5.1926 9.6071 0.3438 3.3833 0.6695 11.814 0.9589 25.311 0.2895 13.099-2.5872 32.386-18.056 35.552-1.1036 0.2171-2.1892-0.4161-2.5329-1.5017l-13.678-44.417c-0.579-1.8816-2.9129-2.4967-4.3422-1.1398l-25.945 24.533c-0.9046 0.8504-1.2664 1.8817-1.1036 3.0939l7.1284 53.246c0.3257 2.4244-1.2302 4.7222-3.6185 5.3011-19.612 4.8307-28.803-13.786-35.751-28.152-0.7056-1.4655-1.7549-1.755-3.13-0.9046-0.3256 0.199-0.9046 0.796-1.7188 1.8273-9.2271 11.597-18.165 22.996-26.795 34.177-1.0674 1.3931-1.2122 3.2747-0.3799 4.8126 11.036 20.191 16.826 41.83 17.369 64.934 0.036 1.3389-1.2484 2.2978-2.5149 1.8816-16.356-5.4096-30.377-14.402-42.047-26.976-0.8684-0.9227-2.3882-0.7056-2.931 0.4342l-19.214 39.731c-0.778 1.5921-0.6152 3.4737 0.4161 4.9212 10.856 15.216 18.672 32.132 23.43 50.768 2.6777 10.457-5.6268 12.285-13.533 8.6301-8.3044-3.8537-16.482-7.5627-24.497-11.145-1.1399-0.5066-2.4787-0.018-3.0215 1.1036l-17.459 35.353c-1.0493 2.1168-0.6151 4.686 1.0856 6.3505 11.851 11.561 41.577 34.376 21.494 52.414-1.2122 1.0856-3.0215 1.5379-5.4459 1.375-6.7847-0.4885-13.569-1.0855-20.354-1.8273-2.3159-0.2533-4.5232 1.1036-5.3373 3.2928l-12.502 33.67c-0.6875 1.8273-0.1266 3.8899 1.3751 5.1564 13.316 11.163 28.713 17.369 46.19 18.617 0.7779 0.054 1.3388 0.4342 1.6826 1.1398l1.3388 2.9129c0.5066 1.0855 2.1168 0.8503 2.2797-0.3438 1.7911-12.81 3.528-25.474 5.1925-37.994 0.1629-1.1941 0.5428-2.0625 1.176-2.6053 1.3027-1.1036 2.7139-0.796 4.2337 0.9227zm-1082.7-368.15c3.491 4.7041 14.492 1.0494 17.947-1.8635 4.795-4.0527 0.579-12.212-6.242-8.1235-3.926 2.352-7.689 4.8668-11.325 7.5264-0.778 0.579-0.959 1.6827-0.38 2.4606zm2443.3 7.7617c2.5329 16.555 21.44 37.506 39.387 24.732 4.1251-2.9491 7.038-6.9114 8.7206-11.923 0.5428-1.6283-1.4293-2.931-2.7139-1.773-18.925 17.061-31.861 3.8175-44.037-11.615-0.4885-0.6152-1.4655-0.1991-1.3569 0.5789zm-154.2 62.365c-0.8685 7.5265 11.181 6.7123 15.324 6.3324 1.3931-0.1266 2.4787-1.2665 2.5149-2.6596 0.6332-20.083 0.9227-43.006 26.053-47.348 32.603-5.6087 33.724 16.229 31.933 40.654-0.09 1.176 0.8323 2.1711 2.0083 2.1711h12.592c0.9227 0 1.7187-0.6333 1.9359-1.5379 4.107-18.219 2.6234-35.624-4.487-52.215-1.6826-3.8899-4.2879-5.681-8.0692-2.7862-0.4162 0.3256-0.9228 0.5246-1.4655 0.5608l-73.311 4.1975c-2.1711 0.1266-3.8899 1.8997-3.9442 4.0708-0.4523 15.596 0.7237 32.983-1.0855 48.56zm525.03-46.588c9.0643 0.5066 13.352-0.398 17.477 9.1186 4.3241 10.005 5.8077 20.3 4.4145 30.902-0.2171 1.5922 1.176 2.9491 2.7682 2.6958l11.995-1.8454c1.2665-0.1809 2.2254-1.2484 2.2797-2.5149 0.9408-19.377 0.8141-45.937-24.244-47.891-8.8834-0.6875-57.968-3.1662-57.986 11.851-0.018 14.022-0.018 27.736 0 41.16 0.018 1.2484 1.0132 2.2616 2.2616 2.2616h10.258c1.2303 0 2.2797-0.8866 2.4606-2.0988l6.2238-40.002c0.3619-2.2978 2.3159-3.9985 4.6317-4.0346 5.4278-0.09 11.254 0.036 17.459 0.398zm-286.3 4.2336c12.882 9.0463 23.032 7.0742 30.468-5.9343 0.5609-0.977-0.5066-2.0987-1.5017-1.556-12.918 6.8933-25.004 5.7535-36.239-3.4556-0.5608-0.4523-1.3569 0.1266-1.0855 0.796 1.5921 3.9623 4.3784 7.3456 8.3587 10.15zm287.02 33.562-9.3719-21.458c-0.054-0.1266-0.2171-0.199-0.3438-0.1447l-0.1266 0.054c-5.4097 2.3701-7.7798 8.9377-5.2831 14.655l0.5247 1.2303c2.5149 5.7172 8.9377 8.4311 14.347 6.0791l0.1266-0.054c0.1267-0.072 0.1991-0.2171 0.1267-0.3618zm158.8 1.9444c0.27-1.3474-4.7055-3.5004-11.123-4.79-6.4098-1.2976-11.838-1.2434-12.11 0.1051-0.27 1.3473 4.7055 3.5003 11.123 4.79 6.4099 1.2976 11.838 1.2433 12.11-0.1051zm-119.01 63.569c1.0675 8.6663 15.686 15.704 15.722 2.1168 0-1.2484-1.1941-2.1349-2.3882-1.755-8.7206 2.7863-11.199-9.1186-5.6629-12.122 8.5939-4.6859 17.712-5.2649 27.374-1.773 2.1169 0.7779 4.5774 2.6415 4.6498 4.8126 2.0083 55.092 4.0346 110.2 6.061 165.31 0.1447 4.3603-0.1447 7.9426 4.1613 9.8966 9.7699 4.4327 12.339-9.9328 12.23-15.976-1.0313-49.592-3.13-99.129-6.3324-148.63-0.4885-7.6532-1.3207-12.755-2.4605-15.306-10.15-22.67-56.955-15.867-53.355 13.425zm-470.77-10.964c25.782 13.461 25.275 30.088 25.746 59.398 1.2484 79.155 2.153 129.65 2.732 151.47 0.1447 5.9162 5.3192 6.9294 9.4262 3.6004 7.038-5.7353 10.331-12.846 9.8785-21.349-3.4557-65.35-5.283-118.54-5.4639-159.56-0.1086-27.066-12.212-44.996-41.993-35.19-0.3618 0.1266-0.5427 0.3799-0.5427 0.7599v0.5246c0 0.1448 0.09 0.2714 0.2171 0.3438zm-875.39 81.597c-2.0445 1.0856-4.0166 0.9228-5.8801-0.5065-0.4885-0.3619-1.0494-0.5609-1.6645-0.579-2.0626-0.036-3.6366 0.7056-4.7222 2.2254-0.3799 0.5247-0.3618 1.0493 0.018 1.574 6.242 8.3407 15.234 3.6547 21.168-1.7188 1.5198-1.375 1.8273-3.6547 0.7237-5.3734-9.969-15.578-23.285-27.428-39.912-35.552-5.5182-2.7139-9.0101-5.0659-13.624-0.5066-0.8322 0.8141-0.4342 2.2073 0.6875 2.4967 18.979 4.7041 33.942 15.125 44.87 31.282 1.5378 2.2797 0.7599 5.3916-1.6645 6.658zm284.76-22.453c15.397 12.357 30.721 24.552 45.973 36.547 1.0493 0.8142 2.5691 0.072 2.5691-1.2484v-8.6844c0-0.6694-0.2895-1.1941-0.8503-1.5378l-48.126-30.323c-0.9047-0.5609-2.0807-0.1628-2.4425 0.8142-0.5428 1.4293-0.2171 2.5148 0.9951 3.2566 1.176 0.7237 1.8092 1.1218 1.8816 1.176zm-96.306 57.643c3.9261 4.8307 0.6875 9.5166-3.2928 13.37-11.76 11.38-24.859 21.132-39.297 29.219-1.4293 0.796-1.0674 2.949 0.5428 3.2385 9.5529 1.7369 30.305-11.163 40.799-17.55 13.931-8.5035 29.31-12.918 46.118-13.226 2.2796-0.036 3.7632-2.4063 2.8043-4.4689-5.9163-12.755-12.032-25.637-18.364-38.682-5.482-11.308-19.25-9.77-30.558-9.589-16.971 0.2895-28.134 0.977-38.953 12.701-1.7549 1.8997-1.7911 4.7945-0.09 6.7304 5.681 6.4952 6.839 14.185-2.9853 17.206-9.0643 2.7682-12.23 9.2453-9.5166 19.431 0.4885 1.8454 1.6645 2.6053 3.5461 2.2615 15.831-2.8405 29.201-10.005 40.093-21.458 0.398-0.4161 0.8684-0.7056 1.4293-0.8322 3.5642-0.8504 6.1334-0.2895 7.7255 1.6464zm-452.55 32.114c59.561-58.348 140.4-67.919 208.84-17.912 144.83 105.82 159 337.9 67.467 481.12-5.4458 8.5216-11.272 14.13-19.884 18.237-1.0312 0.4884-2.2434 0.2894-3.0938-0.4705l-8.8834-8.232c-1.1579-1.0675-2.7863-1.4294-4.2698-0.9409-21.476 6.9476-43.657 8.8654-66.526 5.7535-2.2797-0.3076-2.8405-0.8866-3.5823-2.9672-0.1991-0.579-0.579-1.0313-1.1218-1.357-7.2189-4.2336-12.212-8.3225-20.444-10.674-2.5692-0.7418-4.8488-1.8274-6.8209-3.2748-13.515-9.8604-26.831-19.594-39.966-29.165-1.3026-0.9589-3.0757-0.977-4.4145-0.054-3.9261 2.7139-7.7074 2.0626-11.38-1.9359-44.996-49.121-56.449-111.41-72.533-177.29-5.862-24.009-8.9558-48.198-9.2996-72.551-0.018-1.0675-1.4655-1.4113-1.9359-0.4524-14.42 28.93-20.969 59.181-19.648 90.77 4.4145 105.82 61.279 209.87 168.71 240.74 0.8684 0.2533 1.3207 1.2303 0.9408 2.0626-0.1629 0.3437-0.5066 0.6694-1.0494 0.9408-0.3799 0.1809-0.8322 0.2533-1.3569 0.199-66.526-6.6219-114.94-47.927-145.34-106.47-46.082-88.708-55.743-182.14-32.53-278.19 0.2895-1.1941-1.2483-1.954-2.0082-0.9951-1.6826 2.1168-2.3521 4.9393-3.1481 6.9294-29.979 73.655-34.014 148.41-12.14 224.24 4.4508 15.415 11.272 32.042 17.496 47.8 4.0889 10.403 6.0971 24.063 12.592 33.996 22.851 34.937 50.605 69.765 83.226 104.48 1.9359 2.0445 2.5873 4.5051-0.2895 6.0972-0.7779 0.4342-1.7187 0.5428-2.5872 0.2895l-20.354-5.9886c-0.9046-0.2714-1.8635 0.199-2.2073 1.0855-0.3618 0.8685 0.018 1.8636 0.8685 2.2978 54.477 27.446 111.07 32.205 169.76 14.275 1.4474-0.4343 2.8586 0.7599 2.6596 2.2615-1.1941 8.992-4.6317 16.989-10.313 23.991-1.5197 1.8816-0.4342 4.7041 1.9721 5.0659l14.999 2.2254c1.1217 0.1628 1.6645 1.4655 0.9951 2.3882l-12.755 17.116c-0.2895 0.38-0.2352 0.9227 0.09 1.2665l0.5247 0.5247c0.5066 0.5066 1.2665 0.6332 1.8997 0.3256 71.719-34.322 120.55-94.28 146.1-168.68 12.249-35.733 19.793-72.442 22.616-110.15 0.1267-1.755-0.4884-2.3882-1.8092-1.9359-1.556 0.5428-2.6958 1.8816-3.0034 3.4918-10.801 58.837-28.858 115.88-70.76 160.53-1.4112 1.5017 0.2171 3.8537 2.1168 3.0939l3.3291-1.3208c2.3339-0.9408 4.6678 1.3569 3.7632 3.709-3.9804 10.258-10.982 17.821-20.987 22.688-4.7584 2.3158-10.638 1.3207-10.982-4.9212-0.6151-10.946-5.5182-19.323-14.727-25.13-0.5247-0.3257-1.1579-0.4342-1.755-0.3257-6.3142 1.1761-11.561 3.9261-15.758 8.2502-46.842 48.289-118.92 67.087-178.97 29.816-0.2895-0.1809-0.38-0.5428-0.2352-0.8323 0.1447-0.3075 0.5066-0.4342 0.8142-0.3075 68.263 27.645 125.78 17.333 179.01-33.055 2.2073-2.0806 7.2008-4.4326 14.999-7.0198 0.579-0.181 1.0856-0.5428 1.4655-1.0313 91.403-119.3 95.384-279.13 34.104-412.26-38.989-84.691-129.16-171.72-231.84-137.05-112.17 37.85-153.15 171.93-151.63 277.41 0 0.5609 0.1448 0.977 0.4342 1.2484 0.4162 0.38 0.9228 0.4343 1.5017 0.1629 0.5247-0.2352 0.7961-0.6514 0.7961-1.2484-0.4342-74.686 23.737-169.29 78.25-222.7zm-1066.1-54.82c-11.199 10.801 14.384 24.425 21.494 28.134 1.7912 0.9409 2.6958 3.0034 2.1711 4.9755-2.8586 10.566 0.5247 17.495 6.1334 27.844 19.142 35.371 31.445 72.931 36.909 112.64 2.5873 18.87 3.6004 44.091 5.4459 66.074 0.036 0.38 0.1266 0.6876 0.2895 0.9228 0.2533 0.3618 0.5427 0.5246 0.8503 0.5065 1.1036-0.054 1.6102-0.6332 1.5198-1.7368-2.2073-28.279-1.2122-57.733-6.0972-85.867-3.4195-19.612-6.8932-39.206-10.458-58.801-0.6513-3.528-3.2204-6.3867-4.0708-10.204-4.1613-18.726-7.8883-36.728-19.775-52.251-6.5133-8.5215-18.834-22.29-28.767-32.186-1.556-1.556-4.0527-1.5741-5.645-0.054zm1735.7 43.409c1.1411-1.9587 0.4717-4.4735-1.4934-5.613l-50.371-29.199c-1.96-1.1427-4.4748-0.4733-5.6129 1.4936l-0.1995 0.3443c-1.1411 1.9587-0.4717 4.4735 1.4933 5.613l50.371 29.199c1.9599 1.1427 4.4748 0.4733 5.6128-1.4936zm-388.43-10.209c12.357 9.6614 23.358 15.469 23.954 32.983 0.018 0.579 0.1448 1.0675 0.3619 1.4655 0.3075 0.5609 0.6513 0.977 0.995 1.2122 0.9228 0.6332 2.1892 0.2895 2.6777-0.7418 1.6826-3.5461 4.5232-5.4639 8.5035-5.7353 1.5198-0.1086 2.8405 1.0493 2.931 2.5872 0.1628 3.1119-0.5789 6.9475 0.9408 9.7338 6.061 11.109 25.818 6.8751 17.134-7.7979-3.528-5.9705-7.237-12.086-11.091-18.364-0.5789-0.9408-1.954-0.977-2.5691-0.072-9.8785 14.384-25.854-1.4655-20.481-15.867 0.1628-0.4704 0.199-0.9589 0.09-1.4474l-0.8503-3.6909c-0.1629-0.7418 0.054-1.3026 0.6875-1.7007 0.8684-0.5608 1.375-1.2845 1.5017-2.1711 0.1266-0.8322-0.2714-1.7369-1.158-2.732-2.5148-2.7862-4.9573-5.6629-7.2912-8.6301-0.3981-0.4885-0.8504-0.5609-1.3751-0.2171-0.597 0.398-0.9046 0.9408-0.9408 1.6283-0.1085 2.2978 2.2073 2.0807 1.0313 5.3192-3.2205 8.9739-9.9147 10.24-16.844 4.3241-2.0445-1.7368-5.0298 0.5247-3.8899 2.9491 1.2122 2.6234 3.1119 4.9574 5.681 6.9656zm-1270.9 68.643c1.158 0.7238 2.6596 0.7057 3.7995-0.072 11.778-7.9245 23.701-16.012 35.769-24.28 11.199-7.6531 17.966-10.53 30.866-8.9739 1.4293 0.1629 2.5511-1.1941 2.0987-2.5691l-10.512-32.006c-0.3076-0.9408-1.0856-1.6645-2.0626-1.8816-42.934-9.7157-61.478 20.897-65.477 57.607-0.6513 6.0429 0.5247 9.0824 5.5182 12.176zm-83.442 361.98c9.9687-7.1827 17.568-15.722 22.76-25.637 30.196-57.588 50.55-122.85 45.666-189.3-2.1169-28.912-7.3818-66.942-15.759-114.09-3.9442-22.254-15.361-42.355-28.622-61.786-25.438-37.216-64.174-57.353-102.87-22.38-13.027 11.778-22.308 26.469-27.863 44.073-0.181 0.5428 0 0.9046 0.543 1.0856 0.85 0.2713 1.447-0.036 1.827-0.8866 16.844-40.093 53.482-74.541 97.917-41.667 26.053 19.268 44.634 50.424 53.029 81.471 0.2171 0.796-0.7418 1.375-1.3389 0.8141-11.489-10.693-25.022-15.379-40.617-14.076-3.492 0.2895-5.573 2.4244-6.242 6.3867-0.07 0.4704 0.05 0.8684 0.398 1.2122l3.546 3.5642c0.579 0.579 0.235 1.5741-0.579 1.6645-16.573 1.8636-27.175 14.89-29.654 30.721-0.07 0.5247 0.235 1.0132 0.742 1.176 0.489 0.1448 1.031-0.09 1.267-0.5608 3.781-7.7979 9.299-14.022 16.554-18.653 28.659-18.273 45.883 68.209 48.362 82.013 0.8865 4.903 4.0165 6.9656 9.3719 6.1514 0.3257-0.054 0.6333-0.1809 0.8866-0.398 12.936-10.729 11.181 32.096 10.964 35.642-2.4606 38.935-8.7748 76.785-18.925 113.55-2.2616 8.1778-5.084 15.885-8.4673 23.122-0.8142 1.7188-2.4063 2.931-4.2699 3.2567l-21.982 3.8356c-1.52 0.2714-2.967-0.8142-3.148-2.3521-0.67-5.6267-2.913-9.2633-7.726-12.864-34.484-25.818-43.549-65.296-50.84-105.24-0.326-1.7912-0.398-3.329-0.235-4.5955 0.09-0.579 0.47-1.0675 0.995-1.3207l8.015-3.6728c1.466-0.6695 1.791-2.6054 0.615-3.709-14.221-13.406-18.219-29.961-22.833-48.289-0.307-1.1941-1.845-1.5379-2.605-0.5609-22.417 28.749-7.11 95.872 1.954 128.11 7.581 26.922 14.745 53.482 41.74 67.449 0.597 0.3076 0.886 0.977 0.723 1.6283-0.452 1.8274-1.827 2.334-4.107 1.5198-58.547-20.68-60.302-142.75-61.207-190.41-0.05-2.5692-0.868-5.0297-2.46-7.3818-0.38-0.5789-0.887-0.7056-1.502-0.3618-1.864 1.0493-3.257 2.4244-4.216 4.107-14.636 26.27-14.655 56.756-10.023 86.772 6.911 44.779 21.603 86.79 44.092 126.01 0.307 0.5427 0.289 1.0674-0.07 1.574-2.171 3.0576-2.75 5.8982-1.755 8.5216 9.191 23.918 45.322 22.489 64.681 14.04 2.099-0.9227 3.528-2.1168 4.288-3.5642 0.271-0.5066 0.271-1.1218 0.02-1.6465l-1.357-2.75c-0.271-0.5247-0.163-0.977 0.326-1.3208zm2819-399.9c-0.199 1.0313 0.1266 2.0807 0.8865 2.8044l24.696 23.538c1.6464 1.5741 4.3603 0.8866 5.0478-1.2664l13.786-42.608c0.5428-1.6645-0.4161-3.4557-2.0987-3.908l-32.983-9.1186c-1.7188-0.4704-3.4918 0.6151-3.8356 2.3701zm-51.636-23.43 36.312 13.841c0.9046 0.3438 1.9178-0.1809 2.1711-1.1217l3.9442-15.053c0.4704-1.7731-0.9046-3.4919-2.732-3.4557-13.406 0.3619-26.198 0.8504-38.356 1.4474-1.0494 0.054-1.7731 0.2895-2.1892 0.7418-0.7056 0.778-0.6333 1.8093 0.2171 3.0938 0.1628 0.2352 0.3618 0.4162 0.6332 0.5066zm-136.78 29.798 12.285 31.21c0.7961 2.0083 3.0758 3.0033 5.1021 2.2073l1.7731-0.7056c5.6449-2.2073 7.8521-10.005 4.9573-17.405l-4.6316-11.742c-2.9129-7.3998-9.8424-11.579-15.487-9.3538l-1.7912 0.6875c-2.0264 0.7961-3.0034 3.0757-2.2073 5.1021zm-2443.1-3.7813c-2.8948 14.004 7.1104 22.055 20.065 22.398 197.15 5.1926 394.06 10.512 590.7 15.94 1.7549 0.054 3.2928-1.1579 3.6547-2.8767 0.8141-3.9261 1.6645-11.416 5.6448-13.407 5.3373-2.6957 10.638-5.4277 15.903-8.1959 0.977-0.5066 0.6333-1.9901-0.4704-2.0082l-633.08-13.786c-1.176-0.018-2.1892 0.796-2.4244 1.9359zm1208.2 25.89c-2.0987-8.0512-1.5197-13.171-9.7156-19.395-1.3389-1.0313-2.1711-0.6694-2.5149 1.0674-0.1447 0.7418-0.018 1.5017 0.3257 2.1711 7.3998 13.968 14.818 28.043 22.29 42.228 0.8504 1.6102 2.0626 2.4786 3.6547 2.6234 1.0856 0.1085 1.7731-1.1217 1.1579-2.0083-4.5955-6.6038-2.7862-14.8 5.3554-16.247 10.439-1.8635 28.442 25.999 33.019 35.516 0.3075 0.6333 1.0132 0.9951 1.7007 0.8504l3.0576-0.6332c1.0494-0.2172 1.5921-1.3932 1.0494-2.3159-9.6795-16.772-22.254-30.956-37.723-42.572-0.4342-0.3075-0.9589-0.4704-1.5017-0.4342l-16.935 1.4293c-1.4836 0.1267-2.8405-0.8322-3.2205-2.2796zm131.1 7.7074c-1.8635 12.52 14.492 17.387 23.954 14.311 0.5066-0.1628 0.9408-0.4523 1.2846-0.8684 6.4228-7.7074-7.9246-12.303-9.1006-3.6728-0.1085 0.8504-1.176 1.1941-1.7549 0.5609l-3.112-3.3652c-0.597-0.6513-0.5246-1.6645 0.1448-2.2254l12.357-10.512c1.6645-1.3932 4.1974-0.8504 5.1021 1.1217l10.494 22.598c0.2352 0.4885 0.5971 0.8323 1.1037 1.0132 1.5197 0.5609 2.9852-0.036 4.4145-1.7549 0.3076-0.3981 0.4885-0.8866 0.4885-1.3932l0.1991-38.826c0.018-2.0807-0.9951-2.9129-3.0396-2.533-10.729 2.0264-40.654 12.864-42.536 25.547zm1259.1 34.213c10.656 4.6317 21.53 9.0463 32.585 13.262 2.1711 0.8323 3.8356 0.2895 4.9935-1.6102 3.4738-5.6991 13.678-28.604 8.7749-34.177-16.193-18.4-36.167-29.997-59.959-34.774-1.2484-0.2533-2.352 0.8685-2.0625 2.1168l11.254 49.845c0.5428 2.3701 2.1711 4.3603 4.4146 5.3373zm-226.63-53.011c6.4048 27.356 27.573 55.852 59.235 52.36 0.9046-0.1086 1.1037-1.3208 0.2714-1.7007-23.611-10.693-41.378-27.501-53.301-50.424-1.176-2.2796-2.7862-4.3241-5.3734-2.4605-0.7056 0.5066-1.0313 1.375-0.8323 2.2253zm-1432.2 152.14c-1.3569 7.3637-4.1974 39.894 11.615 36.42 2.0626-0.4523 3.0577-2.7862 1.9721-4.5955-2.0806-3.4194-5.084-5.6629-9.0281-6.7304-0.5971-0.1628-0.9951-0.5427-1.2122-1.1217-9.4624-25.927 18.074-67.304 35.823-84.438 49.465-47.764 120.42-17.188 145.32 38.392 21.729 48.488 25.927 105.3 9.6433 155.87-14.528 45.086-59.669 98.08-113.68 74.523-47.674-20.788-71.086-76.785-70.706-126.61 0.018-1.3388 1.755-1.8635 2.4968-0.7418 5.3373 8.0512 9.7337 17.405 15.469 25.221 16.844 22.978 33.073 0.3618 36.583-16.41 2.5511-12.212 2.8406-23.104 0.9047-32.711-3.5823-17.767-16.736-30.902-36.022-25.221-5.5182 1.6103-8.793 5.0479-9.8243 10.295-0.9951 5.0478 4.5413 8.3044 3.3652 13.262-1.4835 6.3505-13.099 7.3998-18.563 8.8111-5.6268 1.4474-4.0708 4.9392-4.1974 9.2995-1.2484 41.956 11.217 79.119 37.379 111.49 60.248 74.577 140.67 21.82 161.35-50.804 6.1333-21.548 9.8785-43.187 11.199-64.88 0.1267-1.9901 1.755-3.5642 3.7452-3.6185l9.8423-0.2714c1.7912-0.054 2.6958-0.9589 2.7501-2.7319 2.2253-74.921-26.886-133.31-87.314-175.15-1.0313-0.7237-1.4293-2.0625-0.9589-3.2385 0.7418-1.7912 1.8635-2.4968 3.4014-2.0807 25.637 6.8209 48.307 18.834 68.046 36.058 0.778 0.6694 1.9721 0.2171 2.1168-0.778 0.054-0.2533 0.072-0.6332 0.072-1.1398 0-0.3799-0.09-0.7237-0.2714-1.0674-10.114-18.943-30.305-33.526-50.55-42.3-32.006-13.895-70.959-7.5626-99.129 12.592-33.001 23.593-54.531 75.79-61.641 114.42zm1103.3-114.62 1.1579-13.786c0.199-2.2615-1.4836-4.2517-3.7633-4.4507l-0.4885-0.036c-7.2008-0.6152-13.425 3.5823-13.913 9.3719l-0.091 1.0494c-0.4885 5.7896 4.9574 10.964 12.158 11.561l0.4885 0.054c2.2797 0.1809 4.2698-1.5017 4.4508-3.7633zm-2135.3 38.447c0.6333 0.5428 1.556 0.579 2.2073 0.072 15.976-12.303 34.014-19.703 54.097-22.218 2.2254-0.2714 3.4738-2.6958 2.4244-4.6679-4.2879-8.1235-3.6004-15.777 2.0807-22.941 1.4655-1.8454 0.018-4.5593-2.334-4.3603l-27.917 2.3339c-2.3158 0.1991-3.8537 2.4968-3.1662 4.7222 6.6219 21.403-10.638 31.264-25.8 40.6-2.3521 1.4293-4.0166 4.3784-1.5922 6.459zm2757.4-46.082c-3.4918 16.555-9.987 31.825-19.468 45.81-0.9227 1.357-0.8323 3.1662 0.2352 4.4146l22.037 26.108c0.9408 1.1398 2.75 0.8684 3.3471-0.4885l19.848-45.286c0.8322-1.8816 0.4523-4.0889-0.9589-5.5905l-23.611-25.366c-0.4524-0.5065-1.2846-0.2713-1.4294 0.3981zm-1290.4 9.2055c-0.8137-1.679-2.8219-2.3665-4.4944-1.5652l-48.867 23.623c-1.6755 0.8145-2.3811 2.8228-1.5652 4.4943l0.2521 0.5213c0.8136 1.679 2.8219 2.3665 4.4943 1.5652l48.867-23.623c1.6756-0.8146 2.3812-2.8228 1.5652-4.4944zm924.65 25.623-27.464-18.382c-0.1267-0.091-0.2895-0.054-0.38 0.072l-0.036 0.054c-3.2205 4.8307-0.2172 12.502 6.7304 17.152l2.7681 1.8455c6.9295 4.6497 15.18 4.505 18.4-0.3076l0.054-0.072c0.072-0.1085 0.036-0.2895-0.072-0.3618zm-1053-14.148c-1.2846-1.1398-3.2024 0.3619-2.4063 1.8816l3.3109 6.2962c0.2895 0.5609 0.9046 0.8866 1.5379 0.7961l2.0625-0.2895c0.6152-0.09 0.9951-0.7237 0.7599-1.3026-1.2122-2.8948-2.9672-5.3554-5.2649-7.3818zm132.78 3.7814-15.867 9.2633c-0.1447 0.091-0.199 0.2714-0.1085 0.4343l0.036 0.072c0.995 1.7007 5.3915 0.9951 9.8061-1.574l0.4161-0.2533c4.4146-2.5692 7.1828-6.0429 6.1877-7.7617l-0.054-0.072c-0.072-0.1447-0.2714-0.199-0.4161-0.1085zm-1227.6 24.099c7.5988 2.8586 19.775 6.9837 36.529 12.357 0.5789 0.1809 1.1579 0.199 1.7368 0.054 20.897-4.9393 41.794-10.005 62.654-15.162 3.0215-0.7418 6.1877-2.2615 4.0166-5.8981-6.1334-10.295-15.288-10.186-27.03-8.3045-21.838 3.51-43.82 4.885-65.947 4.1432-3.6366-0.1267-10.403 1.0132-12.629 2.8405-3.7451 3.0396-3.5642 8.3769 0.6695 9.969zm1902.8-2.6777c-0.38-0.7056-1.1218-1.1217-1.8997-1.0856l-28.242 1.2122c-1.4655 0.054-2.4063 1.5741-1.8273 2.9129l8.992 20.607c0.3618 0.8142 1.1941 1.3208 2.0625 1.2484l30.016-2.2616c1.5017-0.1085 2.3882-1.7368 1.6645-3.0757zm-2235.9 54.875c11.778 12.212 17.495 26.867 17.151 43.965-0.036 2.1349 2.8043 2.8767 3.8175 1.0132 10.512-19.305-5.862-68.571-13.606-88.273-6.4233-16.356-17.513-15.216-28.17-3.4195-4.722 5.2288 0.163 9.4262 5.953 9.2272 11.145-0.3799 17.495 5.1926 19.069 16.754 0.1628 1.176-1.1036 2.0263-2.1349 1.4474-10.584-5.8439-19.431-4.4146-26.541 4.3241-1.846 2.2616-2.371 6.0791 1.248 6.5314 9.535 1.176 16.175 1.1398 23.213 8.4311zm105.73-38.302 16.699-10.548c0.1628-0.1085 0.2171-0.3076 0.1086-0.4704l-0.091-0.1447c-1.176-1.8817-5.9163-1.0132-10.566 1.9359l-0.4343 0.2714c-4.6497 2.9309-7.4541 6.8389-6.2781 8.7205l0.091 0.1448c0.1086 0.1447 0.3076 0.199 0.4704 0.09zm1172.8 86.844c3.1481 7.7798 6.6219 15.56 10.439 23.358 0.6151 1.2845 1.5378 1.7549 2.7681 1.4474 0.8504-0.2171 1.4474-1.0132 1.4293-1.8998-0.5065-20.77-5.8981-57.914-22.362-72.135-7.8883-6.8209-16.718-6.4048-21.458-19.323-1.6826-4.5774 2.9129-7.0561 6.7847-9.8604 4.0165-2.9129 3.3471-6.8571-0.977-9.0644-40.744-20.734-96.524-7.2189-97.989 46.444-0.036 1.1217 1.3569 1.6826 2.1168 0.8503 10.801-11.814 20.824-20.535 36.294-25.348 19.576-6.0791 37.813-1.9721 50.388 14.42 0.4704 0.597-0.199 1.4293-0.8866 1.1036-47.493-22.38-74.197 2.4968-92.073 44.164-0.6513 1.5379 0.1448 3.311 1.7188 3.8176 6.4952 2.1168 19.268 4.9573 23.575 10.476 13.732 17.55 17.333 37.252 10.801 59.09-0.5247 1.7911 1.1398 3.4737 2.931 2.9491 2.4967-0.7237 4.1613-1.9178 5.0116-3.5824 13.606-26.795 9.589-54.82-13.986-74.324-4.4508-3.6728-8.5216-4.1794-13.913-3.0938-2.6053 0.5247-4.3241-2.6415-2.4424-4.5232 22.127-22.254 50.695-34.14 78.811-13.443 9.6614 7.1104 18.074 24.352 24.732 34.756 0.6694 1.0494 2.2254 1.0313 2.8767-0.036l3.8356-6.3685c0.38-0.6333 1.3027-0.5428 1.5741 0.1266zm1509.3-34.738 34.086 14.257c1.5559 0.6513 3.3652 0.036 4.1974-1.4293 4.9936-8.6663 9.9147-17.405 14.764-26.216 1.8093-3.3109 0.5971-4.4869-1.574-6.8208-14.275-15.415-30.522-26.488-48.705-33.236-2.0987-0.778-4.0346-1.2303-5.7896-1.375-1.3026-0.091-2.3882 0.9589-2.3339 2.2615l2.0987 47.891c0.091 2.0626 1.357 3.8718 3.2567 4.6679zm-1336.7-36.493c-8.9196-3.4557-17.676-6.8571-26.306-10.168-0.8865-0.3438-1.7731 0.4704-1.5017 1.375l4.3784 14.601c0.199 0.6694 0.8504 1.1036 1.5379 1.0313l19.92-2.0445c2.0988-0.2171 3.4919-2.2435 2.8587-4.1794-0.072-0.2171-0.3619-0.4161-0.8866-0.6151zm-1309.1-6.3671c-0.8371-1.2499-9.1778 2.8933-18.612 9.2586-9.4364 6.3719-16.402 12.541-15.556 13.788 0.8371 1.2499 9.1778-2.8933 18.612-9.2586 9.4364-6.3718 16.402-12.541 15.556-13.788zm1404.3 1.2885c-0.3394-0.7653-1.244-1.1091-2.0052-0.7738l-22.694 10.057c-0.7702 0.3367-1.114 1.2413-0.7737 2.0052l0.044 0.099c0.3394 0.7654 1.2441 1.1091 2.0052 0.7739l22.694-10.057c0.7702-0.3367 1.114-1.2414 0.7737-2.0052zm215.47 39.4 3.7633 9.1367c0.5427 1.3389 2.0625 1.9721 3.4014 1.4112l0.1628-0.054c56.014-23.104 100.2-44.833 98.658-48.56l-0.199-0.4704c-1.5379-3.7089-48.198 11.977-104.21 35.081l-0.1629 0.054c-1.3388 0.5609-1.972 2.0806-1.4112 3.4014zm-50.424-30.432c16.066 8.3044 32.078 16.265 48.036 23.918 1.8454 0.8865 3.2928 0.5247 4.3603-1.0494 0.6875-1.0132 0.9227-2.2796 0.6152-3.4737l-5.9163-24.28c-0.3438-1.4293-1.6102-2.4244-3.0938-2.4425-13.841-0.09-27.953 0.2895-42.373 1.1037-1.8273 0.1085-2.9129 1.0131-3.2928 2.7319-0.3076 1.4112 0.3799 2.8405 1.6645 3.4919zm-849.26 37.506h-18.563c-2.334 0-4.288 1.7188-4.5955 4.0346l-5.4821 42.228c-0.2171 1.7007 1.2303 3.1662 2.931 2.9491l47.348-5.8439c1.9178-0.2352 3.3471-1.8816 3.2929-3.7994-0.2895-10.91-1.0856-20.626 0.8141-31.517 1.9721-11.272 3.709-22.598 5.1926-33.978 0.1266-0.8323-0.2352-1.2303-1.0856-1.2122h-0.5427c-0.3981-0.018-0.7599 0.2714-0.8142 0.6694-0.5247 3.2748-2.6958 3.9623-5.6087 2.8767-8.7749-3.2385-17.785-5.5725-27.03-7.0018-4.2517-0.6513-5.8258 1.2303-4.7222 5.663 0.1267 0.5247 0.3619 1.0312 0.6695 1.4655 4.2336 5.9705 7.9426 12.249 11.109 18.816 1.5017 3.0938 0.5427 4.6498-2.9129 4.6498zm1570.4-29.31-0.072 4.5231c0 0.8685 0.6875 1.5741 1.556 1.5922h0.2352c15.162 0.2171 27.482-1.1941 27.519-3.13v-0.6514c0.036-1.9359-12.249-3.6728-27.41-3.8899h-0.2352c-0.8684-0.018-1.5921 0.6875-1.5921 1.556zm-850.03 2.3055c-0.4492-1.5094-2.0595-2.3598-3.5629-1.9104l-61.418 18.543c-1.5062 0.4569-2.3746 2.049-1.9104 3.563l0.1359 0.4503c0.4492 1.5095 2.0595 2.3598 3.5629 1.9104l61.418-18.543c1.5062-0.4568 2.3746-2.049 1.9104-3.563zm-126.79 44.952c2.2073 0.7237 4.0889-0.072 4.8488-2.3882 1.4112-4.2155-3.0395-7.2732-4.1974-10.91-0.2352-0.6875-0.1086-1.4293 0.3075-2.0082 5.2831-7.2551 5.7354-14.944 1.3389-23.068-0.5428-0.9951-1.5379-1.6645-2.6596-1.7911l-21.042-2.4606c-1.7007-0.199-2.9129 1.6283-2.0806 3.13 6.3504 11.362 9.589 23.466 9.6975 36.312 0.018 3.2566 1.5198 5.2106 4.5955 5.8077 2.5692 0.5065 5.1021-1.5379 7.5265-2.5692 0.5428-0.2352 1.1037-0.2533 1.6645-0.054zm1399.2 25.492c0.7056 0.7418 1.9178 0.6332 2.4967-0.199 7.1647-10.439 14.094-20.879 20.806-31.318 4.686-7.2913 2.9491-11.724-2.9671-17.676-5.5183-5.5544-11.127-11.145-16.826-16.754-1.3388-1.3208-3.6004-0.5609-3.8718 1.3026-2.2615 15.578-8.6301 29.201-19.142 40.853-0.9227 1.0313-0.9046 2.6235 0.072 3.6185zm-1205.8-18.617c-0.5247 0.8323-0.3619 1.9359 0.4161 2.5691l35.715 29.093c0.9408 0.7599 2.334 0.4885 2.9129-0.5609l27.139-48.379c0.4704-0.8141 0.2714-1.8635-0.4704-2.4605l-33.127-26.415c-0.8865-0.7056-2.2073-0.4885-2.8224 0.4704zm130.47 7.8341c1.7369 0.6151 3.5099 0.7598 5.3192 0.4342 26.56-4.6679 56.593-4.0708 80.439-5.7173 285.32-19.703 466.86-32.44 544.6-38.211 2.7682-0.199 3.9623-1.5559 3.5824-4.0527-1.3389-8.7748-17.423-6.6761-22.941-6.3324-161.28 10.331-322.5 21.458-483.65 33.381-42.21 3.13-84.166 8.0874-126.45 10.783-7.8159 0.5066-5.4458 8.1054-0.9046 9.7157zm-188.54-37.108 45.105 15.252c0.6333 0.2171 1.3208 0.036 1.755-0.4523 0.7961-0.8866 0.579-1.7188-0.6694-2.4787-14.094-8.6663-28.152-17.477-42.174-26.469-0.5247-0.3438-1.2303-0.072-1.3931 0.5246l-3.2747 12.393c-0.1448 0.5247 0.1447 1.0494 0.6513 1.2303zm-1479.1 6.0248c0.5428 0.4885 1.2665 0.7056 1.9902 0.579 10.059-1.7912 18.708-6.26 25.927-13.443 0.4704-0.4704 0.4161-1.2303-0.091-1.6283-1.6283-1.2846-3.2928-1.0494-5.0116 0.7418-5.3373 5.5725-14.564 7.1646-21.729 9.589-0.9951 0.3438-1.6103 0.8142-1.8817 1.4474-0.398 0.9408-0.1266 1.8455 0.7961 2.7139zm1606.3 60.773c13.588 11.091 28.586 19.775 45.014 26.035 4.0166 1.5198 5.1745 0.054 7.7436-2.6234 8.3407-8.7206 8.3949-16.609 3.2929-26.777-3.51-6.9837-1.7007-22.073-1.755-30.088-0.018-1.6645-1.0856-3.1481-2.6596-3.709l-29.798-10.421c-1.6283-0.5609-3.4376 0.1085-4.306 1.5921-7.2189 12.393-14.546 25.058-21.982 37.958-2.3159 4.0527 2.0082 6.061 4.4507 8.0331zm-275.19-14.438c0.4161 5.2107 6.4409 11.145 11.073 11.362 10.602 0.4885 10.964 8.7387 12.972 16.772 0.5971 2.3882 3.9804 2.4063 4.5955 0.018 2.7863-10.964-2.9491-15.36-9.8785-21.964-0.4704-0.4523-0.6151-0.977-0.4161-1.6102 0.7599-2.4606 2.8767-4.6317 3.6004-6.3686 2.5148-5.9886 1.8454-11.579-2.0264-16.772-0.3437-0.4523-0.8141-0.7237-1.375-0.796-2.9129-0.3619-4.4327 0.8684-4.5955 3.6908-0.3257 5.5002-0.5609 10.91-0.7056 16.211-0.054 2.2435-2.3882 3.6909-4.4327 2.7501-2.0806-0.9589-3.1119-2.5511-3.1119-4.7583 0-0.6876 0.3438-1.3208 0.9046-1.7188 3.7633-2.5692 5.4821-6.1515 5.1564-10.729-0.1809-2.4787-2.6958-4.107-5.0297-3.2567-5.6268 2.0445-7.1466 11.995-6.7304 17.17zm-1463.3 78.829c3.727 3.6547 6.839 6.9114 11.108 7.2009 14.203 0.9589 23.412-7.9788 31.102-20.3 13.859-22.218 14.474-55.454 15.433-81.76 0.036-0.8504-0.6513-1.5741-1.5017-1.6103-0.3799 0-0.7056 0.1629-0.9589 0.4704-0.1809 0.2172-0.2714 0.5428-0.2894 0.959-0.4524 17.749-2.4244 36.674-5.9163 56.81-3.0215 17.26-19.757 49.573-41.92 36.348-18.491-11.036-21.856-33.254-26.053-52.577-0.29-1.3208-2.009-1.6465-2.751-0.5247-1.284 1.9178-0.307 5.1202-0.199 6.857 1.249 19.015 8.576 35.063 21.947 48.126zm2805.5-51.636c0.2894 0.1086 0.5789 0.1447 0.8684 0.1086 17.314-2.0264 32.132-9.1006 44.453-21.241 1.0494-1.0493 0.7599-2.8224-0.5789-3.4556l-34.412-16.392c-4.3965-2.0806-7.1104-0.7598-8.1416 3.9985-2.0988 9.5709-4.1975 19.323-6.2962 29.256-0.8685 4.0889 0.2894 6.3324 4.107 7.7255zm-1186.8 20.879c17.26 3.1662 32.983 9.8423 47.185 20.065 1.6283 1.176 3.908 0.796 5.0478-0.8685l20.571-30.124c0.7056-1.0313 0.6694-2.4063-0.1086-3.4014-19.033-24.262-43.82-39.876-74.342-46.842-4.1251-0.9408-7.9246 1.1217-6.3686 5.7715 3.7452 11.091 7.4541 22.2 11.127 33.344 0.1266 0.3618 0.1266 0.7599 0.018 1.1217l-5.283 17.405c-0.4885 1.5741 0.5247 3.2205 2.153 3.5281zm660.83-31.047c7.0018 6.6761 14.745 12.158 23.195 16.41 2.0626 1.0313 4.5051-0.3256 4.7041-2.6234 0.3618-4.0527-2.1711-6.7847-5.9344-8.3768-7.1827-3.0577-14.329-6.1153-21.422-9.2091-0.9589-0.4162-2.0625 0.054-2.4425 1.0312-0.3076 0.8142-0.1266 1.4294 0.5247 1.8455 0.8142 0.5247 1.2846 0.8322 1.375 0.9227zm-732.96 12.52c22.833-2.5872 44.055-6.5857 63.686-11.959 0.9589-0.2533 1.6102-0.7418 1.9359-1.4655 0.2352-0.5247-0.1809-1.1037-0.7418-1.0313-21.91 2.4425-43.621 6.6219-65.097 12.52-0.3076 0.091-0.5428 0.2171-0.7237 0.3981-0.3256 0.3075-0.4523 0.5789-0.3618 0.7779 0.2171 0.5247 0.7599 0.8323 1.3026 0.7599zm144.5 58.041c7.834 7.7074 15.65 15.107 23.484 22.181 0.8142 0.7418 2.0988 0.579 2.7139-0.3256l32.639-47.855c0.7237-1.0675 0.579-2.4968-0.3437-3.3833l-32.223-31.101c-0.778-0.7418-2.0445-0.4523-2.4063 0.5428-6.9114 18.943-16.283 36.583-28.116 52.902-0.3799 0.5066-0.4885 1.1579-0.3257 1.755 0.7237 2.7682 3.0577 3.7813 4.5775 5.283zm-1558.9-51.003 20.426 6.2057c0.091 0.036 0.2171-0.036 0.2352-0.1266l0.018-0.018c0.8323-2.7862-3.0576-6.4228-8.7025-8.1235l-0.3799-0.1267c-5.6268-1.7007-10.892-0.8503-11.724 1.9178l-0.018 0.018c-0.036 0.1086 0.036 0.2171 0.1448 0.2533zm2474.3 2.732-43.766 57.444c-0.054 0.091-0.036 0.2171 0.036 0.2895h0.018c4.4869 3.4195 16.844-5.2649 27.609-19.395l5.0297-6.6037c10.765-14.13 15.849-28.351 11.38-31.77h-0.018c-0.09-0.072-0.2171-0.054-0.2894 0.036zm-1056.6 3.908c2.0445 0.8503 7.7617 0.796 9.8424 0.199 0.6332-0.199 1.2484-0.1267 1.8273 0.2171 3.51 2.0806 7.0561 2.352 10.62 0.778 1.4293-0.6333 1.0313-2.7682-0.5247-2.8225l-21.241-0.7598c-1.375-0.054-1.7911 1.8454-0.5247 2.3882zm-1538.3 19.359c0.525 0.3075 1.031 0.2713 1.52-0.091 0.669-0.5066 0.832-1.0856 0.488-1.7369-2.605-5.0297-5.373-9.9509-8.322-14.764-0.525-0.8503-1.556-1.2122-2.497-0.8865-1.393 0.5066-1.61 1.4474-0.615 2.8043 4.396 6.0248 2.207 10.494 9.426 14.673zm978.01 19.685 0.5066 0.5247c0.7056 0.7056 1.8997 0.1266 1.7911-0.8684-1.1941-10.439-3.6365-20.553-7.3455-30.359-0.2352-0.6513-0.9589-0.9951-1.6283-0.7961-0.5428 0.181-0.7237 0.5971-0.5609 1.2484 2.3701 9.372 4.1613 18.852 5.4097 28.423 0.09 0.6875 0.5246 1.1941 1.3207 1.5017 0.199 0.072 0.3619 0.1809 0.5066 0.3256zm474.71-18.147c2.8767 2.8225 7.8884 0.4885 10.258-1.4655 1.5559-1.2845 3.8175-1.2303 5.3192 0.1267l11.652 10.53c1.2664 1.1579 3.3109 0.5971 3.8356-1.0313 2.7681-8.6482-25.33-29.816-31.752-12.864-0.7418 1.954-0.5066 3.528 0.6875 4.704zm290.24 31.21c-1.176 1.9178 0.1266 4.4146 2.3882 4.5231l12.629 0.6333c1.5921 0.09 2.8224 1.375 2.8224 2.9672l0.036 18.599c0 1.3026 0.8503 2.4605 2.1168 2.8405l6.8028 2.0444c1.6826 0.5066 3.4376-0.5608 3.7632-2.2977l8.1055-42.445c0.2533-1.3388-0.4161-2.6596-1.6464-3.2385l-18.472-8.7025c-1.375-0.6513-3.0034-0.1628-3.7994 1.1217zm-1605.4-19.707c0.046-1.1899-5.5081-2.4021-12.423-2.6717-6.908-0.2732-12.553 0.4686-12.597 1.6668-0.046 1.19 5.508 2.4022 12.423 2.6718 6.9081 0.2732 12.553-0.4686 12.597-1.6669zm2096.3 22.186c-0.3799-1.4112 0.4343-2.8586 1.8455-3.2748 1.3931-0.4161 2.8586 0.3619 3.329 1.7369 0.9589 2.8405 2.0445 7.9426 6.4771 5.3192 9.39-5.5182-5.3554-19.051-12.665-13.316-0.181 0.1448-0.3981 0.2352-0.6152 0.2533l-4.7583 0.38c-2.0987 0.1628-3.4014 2.3701-2.5511 4.2879 6.1334 13.786 13.786 26.668 22.941 38.646 0.7961 1.0494 2.3521 1.0675 3.1843 0.054 3.7814-4.6679 11.76-15.306 10.729-21.602-0.3257-2.0444-3.0757-2.4787-4.0346-0.6513l-6.5495 12.52c-0.8504 1.6283-3.0758 1.8816-4.2699 0.4885-6.2419-7.2189-10.584-15.487-13.063-24.841zm-620.46 18.798c15.143 2.6415 36.04 4.6317 50.786-0.2533 1.2122-0.398 1.3388-2.0625 0.199-2.6415l-48.723-25.076c-2.3882-1.2303-5.1926 0.6151-5.0478 3.2928l1.3026 23.014c0.054 0.8323 0.6694 1.5198 1.4836 1.6645zm692.13-23.756c34.774 47.819 92.471 77.545 152.23 70 3.3291-0.4161 6.0972-1.954 8.9739-3.4376 1.1037-0.579 1.4474-1.3207 1.0313-2.2073-0.3076-0.6332-0.977-1.0132-1.7007-0.9408-63.848 6.6038-108.56-27.537-155.18-66.345-1.9178-1.6103-4.0889-2.4425-5.5363 0.199-0.4704 0.8684-0.3981 1.9359 0.1809 2.7319zm-1125.8 1.6826c7.9426 28.387 60.863 60.646 76.911 19.359 0.2714-0.7056-0.5066-1.3388-1.1399-0.9589-31.807 19.124-52.758 5.0478-74.541-19.088-0.5066-0.5608-1.4293-0.054-1.2303 0.6875zm-1295.7 34.358 5.898-4.7402c0.669-0.5428 0.814-1.5017 0.344-2.2073l-15.415-22.887c-0.778-1.1399-2.569-0.579-2.533 0.8141 0.145 5.265 2.37 9.4262 6.694 12.52 0.398 0.2894 0.579 0.7779 0.452 1.2664l-1.23 4.5593c-0.235 0.9228-1.375 1.2665-2.099 0.6333l-5.174-4.5774c-1.158-1.0132-2.931-0.7056-3.673 0.6332-4.414 7.9969 9.372 11.236 13.895 14.13 0.977 0.6332 1.918 0.5789 2.841-0.1448zm178.81-16.862c-1.954 1.1217-2.5149 2.6777-1.6645 4.6679 0.9227 2.1711 4.0889 1.8997 4.6136-0.4162l2.7319-12.194c0.4343-1.9721-2.1168-3.1481-3.329-1.5198-1.7188 2.3159-2.2977 4.9755-1.7007 7.9969 0.1267 0.6332-0.09 1.1217-0.6513 1.4655zm-145.77 80.693c0.922 5.2649 3.492 9.2634 7.707 11.995 7.4 4.7945 4.36 10.747-1.918 14.13-1.067 0.579-1.14 2.0807-0.126 2.7501l23.212 15.379c1.285 0.8504 3.04 0.199 3.438-1.3026l2.189-8.1598c0.199-0.7599 1.068-1.1217 1.773-0.7418l11.923 6.6219c0.85 0.4704 1.846-0.3618 1.502-1.2846-0.941-2.4786-2.587-4.6678-4.939-6.6037-11.489-9.3901-22.616-19.214-33.363-29.473-11.398-10.856-17.025-26.56-27.175-38.953-0.38-0.4704-0.633-1.0132-0.742-1.6103-1.827-10.078-7.472-17.007-16.916-20.77-1.013-0.398-1.592-1.4836-2.045-2.4244-0.235-0.4885-0.796-0.7237-1.32-0.5608-2.732 0.9046-5.03 0.3075-6.894-1.7912-0.47-0.5247-1.23-0.6513-1.845-0.3076-2.081 1.176-3.438 2.8586-4.107 5.0659-0.199 0.6333-0.07 1.2303 0.344 1.755 9.571 11.905 12.266 25.094 18.02 36.619 7.436 14.89 17.278 28.062 29.545 39.55 0.416 0.3799 0.904 0.5609 1.483 0.5247 2.045-0.1628 3.221-1.2303 3.528-3.1662 0.09-0.579-0.09-1.0675-0.542-1.4474-2.533-2.2254-5.265-4.1432-8.214-5.7715-7.69-4.2518-1.792-12.176 4.215-11.272 0.652 0.09 1.158 0.5971 1.267 1.2484zm1064-61.08-20.933 13.949c-1.0313 0.6875-1.3207 2.0988-0.6151 3.13l0.2533 0.38c2.2796 3.4375 7.7074 3.8537 12.104 0.9227l8.7748-5.8439c4.3965-2.931 6.0972-8.1054 3.7995-11.543l-0.2533-0.38c-0.6875-1.0312-2.0988-1.3207-3.13-0.6151zm1286.1 22.507c1.6283 0.9046 3.6728 0.199 4.4146-1.5198 2.0987-4.9573 4.107-10.168 6.0248-15.65 0.6513-1.8635 0.199-2.9672-1.3751-3.3109-0.977-0.2172-2.0082 0.09-2.7138 0.796l-11.091 11.127c-0.5427 0.5428-0.7418 1.3389-0.5246 2.0807 0.8322 2.8224 2.5872 4.9754 5.2649 6.4771zm-731.93-13.316 21.204 2.9672c0.1628 0.036 0.3075-0.091 0.3256-0.2352l0.018-0.1086c0.2714-1.9359-2.6596-3.9623-6.5314-4.505l-7.7436-1.0856c-3.8718-0.5428-7.237 0.579-7.5084 2.533l-0.018 0.09c-0.018 0.1629 0.09 0.3076 0.2533 0.3438zm-551.17 20.191c-6.6399-4.5231-8.7206 3.8718-8.7206 8.5759 0 1.0132 1.2484 1.5017 1.954 0.7599l6.9657-7.3456c0.7056-0.7418 0.6513-1.4112-0.1991-1.9902zm-8.9739 19.196c1.2303-2.4425 1.5379-5.0478 0.9409-7.8341-0.1267-0.5427-0.5428-0.9589-1.0856-1.0674-5.0659-1.0494-7.6531-4.2518-7.7798-9.5891-0.018-0.6694-0.3437-0.9046-0.977-0.6694l-1.3931 0.5247c-1.0855 0.398-1.574 1.6464-1.0313 2.6777l8.5035 15.994c0.5971 1.1398 2.2435 1.1217 2.8224-0.036zm12.448-9.4986c-6.0972 8.4854-9.5348 17.93-10.349 28.369-0.018 0.3799 0.1266 0.7418 0.398 0.9951 0.6333 0.5608 1.3208 0.6151 2.0807 0.1628 0.3075-0.199 0.5608-0.5066 0.7598-0.9589 2.8044-6.6399 5.9344-13.117 9.4262-19.431 1.8636-3.3833 2.7501-6.2961 0.1448-9.2633-0.6694-0.7599-1.8816-0.7056-2.4606 0.1266zm541.33 6.26c13.714 3.6547 27.645 6.1515 41.776 7.4903 0.6694 0.072 0.9408-0.2352 0.8142-0.9046-0.1267-0.6151-0.5971-1.0313-1.4113-1.2303-13.768-3.4556-27.03-5.862-39.767-7.2008-0.3799-0.036-0.7056 0-0.977 0.1266-0.3076 0.1629-0.579 0.3438-0.778 0.579-0.3437 0.398-0.1628 1.0132 0.3438 1.1398zm-532.79 6.4591c-1.0494-0.4162-2.2073 0.3437-2.2435 1.4655-0.1628 3.8356-1.1217 7.4903-2.8767 10.964-2.7682 5.4459-2.2978 10.439 2.352 14.112 0.7237 0.5789 1.7912 0.2895 2.1168-0.5609 1.755-4.4326 6.4048-23.756 0.6514-25.981zm-959.01 1.3388-16.971 22.778c-0.072 0.1085-0.054 0.2714 0.054 0.3618l0.072 0.054c2.2254 1.6464 7.816-2.1168 12.52-8.413l0.2713-0.3799c4.7041-6.2962 6.7124-12.737 4.487-14.402l-0.072-0.054c-0.1085-0.072-0.2714-0.054-0.3618 0.054zm982.39 48.325c0.7961 0.2714 1.4836 0.9046 2.0806 1.8997 6.7847 11.308 13.624 22.778 20.481 34.376 0.4885 0.8323 1.5197 1.1579 2.3882 0.7599 1.6283-0.7237 1.9178-2.0806 0.8684-4.0889-7.436-14.022-15.596-28.206-24.461-42.554-0.6694-1.0675-1.6102-1.5921-2.8586-1.5921-1.3207 0.018-2.551 0.8503-3.727 2.5329-6.1696 8.8834-9.8605 19.033-11.036 30.468-0.09 0.8865 0.4704 1.7007 1.3208 1.9359 0.8684 0.2533 1.755-0.1628 2.1349-0.977l9.9871-21.548c0.4885-1.0674 1.7007-1.5921 2.8224-1.2122zm48.325 68.336c0.9046 0.2352 1.4112 1.2302 1.0494 2.0987l-5.3011 13.208c-0.3619 0.9227 0.3618 1.8997 1.3388 1.7912 6.839-0.7418 10.548-3.9804 11.145-9.7338 1.1217-10.747-16.537-25.456-24.66-30.631-1.2665-0.8142-2.352-0.6333-3.2747 0.5789l-11.127 14.564c-1.1037 1.4474-3.0758 1.8816-4.6679 1.0313-1.6102-0.8504-2.3701-2.732-1.7912-4.4508 1.556-4.6859 3.5643-9.7337 6.0067-15.107 1.4113-3.1119 0.5247-6.5857-3.1119-7.0018-3.2385-0.3619-5.7896 2.9852-7.9245 5.1744-0.3799 0.3981-0.9408 0.5609-1.4655 0.4343-3.6366-0.8323-5.5906-3.1481-5.862-6.9657-0.036-0.597 0.2533-1.176 0.7599-1.5016 4.9936-3.2748 10.946-9.0101 6.4591-15.306-0.6152-0.8685-1.8817-0.9408-2.6054-0.1448l-10.367 11.38c-0.4161 0.4524-0.6332 1.0494-0.597 1.6826 0.5247 8.3588 3.8899 14.926 10.078 19.685 2.153 1.6826 3.7452 3.3833 4.7402 5.1383 4.2156 7.3274 8.4492 14.51 12.701 21.548 0.6332 1.0493 2.2073 0.9046 2.6234-0.2533l7.6531-21.005c0.8866-2.4425 4.3603-2.4063 5.1926 0.054l3.528 10.476c0.181 0.5247 0.6152 0.9227 1.1399 1.0675zm589.02 42.391-82.81-64.228h-0.018c-1.3388 1.7369 0.1086 5.1021 3.2386 7.5446l71.484 55.435c3.13 2.4425 6.7666 3.0034 8.1055 1.2665zm-600.06-39.822c-1.556 6.0067-4.0166 7.1646-9.1729 9.7519-0.7237 0.3618-0.9951 1.2302-0.6333 1.9359l3.3471 6.459c0.3438 0.6332 1.1942 0.778 1.7188 0.2895 2.9672-2.7501 11.507-14.655 8.7025-18.672-0.6513-0.9408-1.574-1.2484-2.7862-0.9227-0.579 0.1447-1.0313 0.597-1.176 1.1579zm24.552 10.874c-2.2073 4.4508-5.2649 8.8291-7.8883 13.117-2.8044 4.6317-6.1696 1.3569-8.8654 3.329-1.2122 0.8865-1.7187 2.551-1.5378 5.0116 0.1266 1.6826 1.9178 2.6958 3.4195 1.9178 9.4262-4.8488 15.722-12.357 18.852-22.507 0.2895-0.9227-0.2171-1.8816-1.1218-2.1892-1.2664-0.4161-2.2253 0.036-2.8586 1.3208zm451.61 38.971 64.319 69.692c0.1086 0.1267 0.2895 0.1267 0.4161 0.018 4.0708-3.7451-5.4639-20.68-21.277-37.831l-7.436-8.0512c-15.813-17.134-31.933-27.989-35.986-24.244h-0.018c-0.1086 0.1086-0.1266 0.3076-0.018 0.4162z" stroke-width="1.8092"/> </g> </svg>